<svg xmlns="http://www.w3.org/2000/svg" width="25" height="25" viewBox="0 0 25 25"><defs><style>.a{fill:none;stroke:#707070;stroke-linejoin:round;stroke-width:2px;}</style></defs><g transform="translate(1 1)"><path class="a" d="M5.3,7.6H3V23.7A2.307,2.307,0,0,0,5.3,26H21.4V23.7H5.3ZM23.7,3H9.9A2.307,2.307,0,0,0,7.6,5.3V19.1a2.307,2.307,0,0,0,2.3,2.3H23.7A2.307,2.307,0,0,0,26,19.1V5.3A2.307,2.307,0,0,0,23.7,3ZM22.55,13.35H11.05v-2.3h11.5Zm-4.6,4.6h-6.9v-2.3h6.9Zm4.6-9.2H11.05V6.45h11.5Z" transform="translate(-3 -3)"/></g></svg>