<svg xmlns="http://www.w3.org/2000/svg" width="25" height="28.286" viewBox="0 0 25 28.286"><defs><style>.a{fill:none;stroke:#707070;stroke-width:2px;}</style></defs><path class="a" d="M.616,9.857H22.384a.618.618,0,0,1,.616.616V23.821a2.465,2.465,0,0,1-2.464,2.464H2.464A2.465,2.465,0,0,1,0,23.821V10.473A.618.618,0,0,1,.616,9.857ZM23,7.6V5.75a2.465,2.465,0,0,0-2.464-2.464H18.071V.616A.618.618,0,0,0,17.455,0H15.4a.618.618,0,0,0-.616.616v2.67H8.214V.616A.618.618,0,0,0,7.6,0H5.545a.618.618,0,0,0-.616.616v2.67H2.464A2.465,2.465,0,0,0,0,5.75V7.6a.618.618,0,0,0,.616.616H22.384A.618.618,0,0,0,23,7.6Z" transform="translate(1 1)"/></svg>