<svg xmlns="http://www.w3.org/2000/svg" xmlns:xlink="http://www.w3.org/1999/xlink" width="157" height="157" viewBox="0 0 157 157"><defs><style>.a{fill:#fff;stroke:#e8e8e8;stroke-width:4px;}.b{clip-path:url(#a);}.c{opacity:0.5;}.d{fill:url(#b);}.e{fill:#f5f5f5;}.f{fill:#ff5757;}.g{fill:#333;}.h{opacity:0.1;}.i{fill:#fdb797;}</style><clipPath id="a"><circle class="a" cx="78.5" cy="78.5" r="78.5" transform="translate(1526 223)"/></clipPath><linearGradient id="b" x1="0.5" y1="1" x2="0.5" gradientUnits="objectBoundingBox"><stop offset="0" stop-color="gray" stop-opacity="0.251"/><stop offset="0.54" stop-color="gray" stop-opacity="0.122"/><stop offset="1" stop-color="gray" stop-opacity="0.102"/></linearGradient></defs><g class="b" transform="translate(-1526 -223)"><g transform="translate(1526 223)"><g class="c"><circle class="d" cx="78.5" cy="78.5" r="78.5"/></g><circle class="e" cx="76.845" cy="76.845" r="76.845" transform="translate(1.808 1.154)"/><path class="f" d="M135.182,177.864a76.476,76.476,0,0,0,42.239-12.641c-2.832-15.475-13.608-16.357-13.608-16.357H104.387s-10.169.834-13.345,15.07a76.491,76.491,0,0,0,44.14,13.928Z" transform="translate(-56.457 -22.718)"/><circle class="g" cx="37.091" cy="37.091" r="37.091" transform="translate(40.818 39.288)"/><path class="h" d="M65.938,107.273H89.7v19.013a11.883,11.883,0,0,1-11.878,11.883h0a11.883,11.883,0,0,1-11.883-11.883V107.273Z"/><path class="i" d="M66.691,106.391H88.959a.754.754,0,0,1,.754.754V125.4a11.883,11.883,0,0,1-11.89,11.885h0a11.883,11.883,0,0,1-11.883-11.883V107.145a.754.754,0,0,1,.749-.754Z"/><path class="h" d="M122.438,138.965a34.2,34.2,0,0,0,23.766.065v-2.924H122.438Z" transform="translate(-56.457 -22.718)"/><circle class="i" cx="34.065" cy="34.065" r="34.065" transform="translate(43.843 49.707)"/><path class="h" d="M110.1,75.5s14.357,29.142,54.856,12.218l-9.429-14.785-16.714-6Z" transform="translate(-56.457 -22.718)"/><path class="g" d="M110.1,75.077s14.357,29.142,54.856,12.214l-9.429-14.785-16.714-6Z" transform="translate(-56.457 -22.718)"/><path class="g" d="M109.974,73.1a19.679,19.679,0,0,1,4.879-7.933c6.7-6.624,17.686-8.021,23.321-15.574a4.411,4.411,0,0,1-2.024,6.219c5.4-.036,11.654-.508,14.706-4.948a10.1,10.1,0,0,1-1.7,10.662c4.784.225,9.9,3.464,10.2,8.244.207,3.185-1.8,6.2-4.406,8.025s-5.783,2.665-8.9,3.351C136.95,83.156,104.038,91.562,109.974,73.1Z" transform="translate(-56.457 -22.718)"/><ellipse class="i" cx="3.169" cy="5.943" rx="3.169" ry="5.943" transform="translate(40.66 77.798)"/><ellipse class="i" cx="3.169" cy="5.943" rx="3.169" ry="5.943" transform="translate(108.8 77.798)"/></g></g></svg>