<svg xmlns="http://www.w3.org/2000/svg" width="312.923" height="250.111" viewBox="0 0 312.923 250.111"><defs><style>.a,.f{fill:#ff5d58;}.a,.e{opacity:0.1;}.b{fill:#f8d15b;}.c{fill:#46455b;}.d{fill:#3f3d56;}.g{fill:#323444;}.h{fill:#fbb3b2;}.i{fill:#5b5583;}.j{fill:#3c354c;}.k{fill:#cbceda;}.l{fill:#47bdb7;}.m{fill:#a8a8a8;}.n{opacity:0.2;}</style></defs><g transform="translate(0)"><rect class="a" width="28.377" height="8.579" rx="4.29" transform="translate(63.97 42.895)"/><rect class="a" width="28.377" height="8.579" rx="4.29" transform="translate(93.666 51.474)"/><rect class="a" width="28.377" height="8.579" rx="4.29" transform="translate(123.363 60.053)"/><rect class="a" width="28.377" height="8.579" rx="4.29" transform="translate(63.97 30.027)"/><rect class="a" width="28.377" height="8.579" rx="4.29" transform="translate(93.666 38.606)"/><rect class="a" width="28.377" height="8.579" rx="4.29" transform="translate(123.363 47.185)"/><rect class="a" width="28.377" height="8.579" rx="4.29" transform="translate(156.359 42.895)"/><rect class="a" width="28.377" height="8.579" rx="4.29" transform="translate(186.056 51.474)"/><rect class="a" width="28.377" height="8.579" rx="4.29" transform="translate(215.752 60.053)"/><rect class="a" width="28.377" height="8.579" rx="4.29" transform="translate(156.359 30.027)"/><rect class="a" width="28.377" height="8.579" rx="4.29" transform="translate(186.056 38.606)"/><rect class="a" width="28.377" height="8.579" rx="4.29" transform="translate(215.752 47.185)"/><rect class="a" width="28.377" height="8.579" rx="4.29" transform="translate(63.97 12.869)"/><rect class="a" width="28.377" height="8.579" rx="4.29" transform="translate(93.666 21.448)"/><rect class="a" width="28.377" height="8.579" rx="4.29" transform="translate(123.363 30.027)"/><rect class="a" width="28.377" height="8.579" rx="4.29" transform="translate(63.97)"/><rect class="a" width="28.377" height="8.579" rx="4.29" transform="translate(93.666 8.579)"/><rect class="a" width="28.377" height="8.579" rx="4.29" transform="translate(123.363 17.158)"/><rect class="a" width="28.377" height="8.579" rx="4.29" transform="translate(156.359 12.869)"/><rect class="a" width="28.377" height="8.579" rx="4.29" transform="translate(186.056 21.448)"/><rect class="a" width="28.377" height="8.579" rx="4.29" transform="translate(215.752 30.027)"/><rect class="a" width="28.377" height="8.579" rx="4.29" transform="translate(156.359)"/><rect class="a" width="28.377" height="8.579" rx="4.29" transform="translate(186.056 8.579)"/><rect class="a" width="28.377" height="8.579" rx="4.29" transform="translate(215.752 17.158)"/><rect class="a" width="28.377" height="8.579" rx="4.29" transform="translate(63.97 195.667)"/><rect class="a" width="28.377" height="8.579" rx="4.29" transform="translate(93.666 204.247)"/><rect class="a" width="28.377" height="8.579" rx="4.29" transform="translate(123.363 212.826)"/><rect class="a" width="28.377" height="8.579" rx="4.29" transform="translate(63.97 182.799)"/><rect class="a" width="28.377" height="8.579" rx="4.29" transform="translate(93.666 191.378)"/><rect class="a" width="28.377" height="8.579" rx="4.29" transform="translate(123.363 199.957)"/><rect class="a" width="28.377" height="8.579" rx="4.29" transform="translate(156.359 195.667)"/><rect class="a" width="28.377" height="8.579" rx="4.29" transform="translate(186.056 204.247)"/><rect class="a" width="28.377" height="8.579" rx="4.29" transform="translate(215.752 212.826)"/><rect class="a" width="28.377" height="8.579" rx="4.29" transform="translate(156.359 182.799)"/><rect class="a" width="28.377" height="8.579" rx="4.29" transform="translate(186.056 191.378)"/><rect class="a" width="28.377" height="8.579" rx="4.29" transform="translate(215.752 199.957)"/><rect class="a" width="28.377" height="8.579" rx="4.29" transform="translate(63.97 165.641)"/><rect class="a" width="28.377" height="8.579" rx="4.29" transform="translate(93.666 174.22)"/><rect class="a" width="28.377" height="8.579" rx="4.29" transform="translate(123.363 182.799)"/><rect class="a" width="28.377" height="8.579" rx="4.29" transform="translate(63.97 152.772)"/><rect class="a" width="28.377" height="8.579" rx="4.29" transform="translate(93.666 161.351)"/><rect class="a" width="28.377" height="8.579" rx="4.29" transform="translate(123.363 169.93)"/><rect class="a" width="28.377" height="8.579" rx="4.29" transform="translate(156.359 165.641)"/><rect class="a" width="28.377" height="8.579" rx="4.29" transform="translate(186.056 174.22)"/><rect class="a" width="28.377" height="8.579" rx="4.29" transform="translate(215.752 182.799)"/><rect class="a" width="28.377" height="8.579" rx="4.29" transform="translate(156.359 152.772)"/><rect class="a" width="28.377" height="8.579" rx="4.29" transform="translate(186.056 161.351)"/><rect class="a" width="28.377" height="8.579" rx="4.29" transform="translate(215.752 169.93)"/><ellipse class="a" cx="144.688" cy="11.879" rx="144.688" ry="11.879" transform="translate(14.475 226.354)"/><path class="b" d="M153.751,249.964c13.644,5.913,21.484,18.148,21.484,18.148s-14.284,2.64-27.931-3.27-21.484-18.148-21.484-18.148S140.1,244.051,153.751,249.964Z" transform="translate(-125.82 -188.327)"/><path class="b" d="M329.477,168.229A29.173,29.173,0,0,1,340.884,158a29.394,29.394,0,0,1-3.877,14.809,29.1,29.1,0,0,1-11.41,10.206A29.12,29.12,0,0,1,329.477,168.229Z" transform="translate(-259.673 -129.293)"/><path class="c" d="M240.821,168.494c3.019,10.777,11.341,17.871,11.341,17.871s3.428-10.384.409-21.164-11.344-17.871-11.344-17.871S237.8,157.714,240.821,168.494Z" transform="translate(-202.04 -122.144)"/><rect class="d" width="240.542" height="120.436" rx="7.21" transform="translate(39.223 45.865)"/><path class="e" d="M118.87,482H359.412v4.88a2.379,2.379,0,0,1-2.379,2.379H121.249a2.379,2.379,0,0,1-2.379-2.379Z" transform="translate(-79.647 -322.958)"/><rect class="f" width="17.818" height="8.909" rx="2.5" transform="translate(62.65 150.133)"/><rect class="f" width="12.209" height="1.32" rx="0.66" transform="translate(85.417 157.722)"/><path class="f" d="M312.12,269.877c8.708,1.607,17.59,0,26.262-1.089l26.354-3.3c1.066-.135,2.617-.772,3.243.531.353.729.116,2.31.142,3.148.069,2.31.063,4.619,0,6.929-.119,4.415-.442,8.82-.855,13.215-.8,8.6-1.937,17.158-2.5,25.793-.29,4.4-.436,8.8-.307,13.2.03,1.049.073,2.1.135,3.145.069,1.171.594,2.91-.683,3.692a9.441,9.441,0,0,1-3,.558c-1.32.208-2.64.373-3.986.508-8.873.888-17.861.518-26.767.465l-26.892-.139-6.56-.036c-.594,0-2.735.356-3.1-.35a6.984,6.984,0,0,1,.33-2.082q.152-.93.33-1.858c.766-4.339,1.67-8.652,2.58-12.961,1.957-9.239,3.96-18.524,4.765-27.961.4-4.735.135-9.513.624-14.238.228-2.194.5-7.091,3.418-7.286,2.475-.165,5.022,0,7.5,0a.495.495,0,0,0,0-.99c-2.343,0-4.689-.063-7.031-.016-1.557.03-2.64.4-3.382,1.831-1.9,3.676-1.7,8.579-1.762,12.591a152.776,152.776,0,0,1-3.537,28.4c-.967,4.728-2.009,9.44-2.97,14.172-.452,2.26-.884,4.527-1.28,6.8-.185,1.082-1.119,3.468-.3,4.461s3.349.459,4.481.465l7.873.046,15.086.086c9.747.056,19.527.33,29.271.043a68.454,68.454,0,0,0,14.1-1.442,2.258,2.258,0,0,0,2.052-2.389c.079-2.231-.284-4.53-.33-6.771-.33-19.171,4.174-38.074,3.712-57.252-.03-1.3.462-4.59-.963-5.378a3.6,3.6,0,0,0-2.145-.082c-1.287.148-2.57.33-3.857.482L345.46,266.9c-5.342.66-10.681,1.373-16.033,1.98-5.665.66-11.387,1.053-17.033,0-.624-.115-.891.838-.264.954Z" transform="translate(-237.542 -200.46)"/><path class="f" d="M319.033,308.152l65.933-3.234c.637-.033.64-1.023,0-.99l-65.933,3.234C318.4,307.192,318.4,308.182,319.033,308.152Z" transform="translate(-254.961 -227.07)"/><path class="f" d="M380.646,285.523a1.65,1.65,0,0,0,.584,2.663,4.336,4.336,0,0,0,2.811-.155c1.32-.33,2.64-.624,4-.864a54.5,54.5,0,0,1,8.939-.832c1.366-.016,2.722.046,4.088.106a4.416,4.416,0,0,0,2.894-.495,1.868,1.868,0,0,0,.33-2.917c-1.32-1.2-4.164-.5-5.689-.379a127.571,127.571,0,0,0-16.452,2.455c-.62.132-.36,1.089.264.954q5.368-1.158,10.819-1.861,2.679-.33,5.368-.558c.845-.069,1.689-.132,2.534-.181.33-.02.68-.056,1.016-.046,1.046.023,1.168-.165.541,1.1-.558,1.119-.379.99-1.346.954-.409,0-.818-.046-1.227-.066q-1.257-.053-2.514-.056-2.676,0-5.339.257c-1.5.145-3.006.35-4.494.614-.931.165-1.854.356-2.775.568-.406.1-.815.195-1.221.3-.195.053-.393.1-.587.148q-1.082.376-1.844-.99c.442-.459-.254-1.161-.7-.7Z" transform="translate(-296.262 -212.601)"/><path class="f" d="M385.837,333.132c-4.775-.185-9.932,1.105-13.076,4.949-2.461,3.006-3.864,8.163-1.257,11.549,2.8,3.63,8.945,2.989,12.651,1.442,3.92-1.65,8.209-5.052,9.387-9.308,1.468-5.316-3.3-9.335-8.266-9.394a.5.5,0,0,0,0,.99,7.552,7.552,0,0,1,6.929,3.884c1.383,2.778.191,5.7-1.65,7.919-2.95,3.54-7.563,6.21-12.261,6.134-2.821-.043-5.939-1.01-6.814-3.986a9.212,9.212,0,0,1,1.082-7.187c2.712-4.619,8.233-6.184,13.294-5.986.637.023.637-.967,0-.99Z" transform="translate(-289.501 -246.128)"/><path class="f" d="M399.889,350.187a1.287,1.287,0,0,0-1.729,1.32c.1,1.287,1.518,1.65,2.584,1.574.921-.079,2-.419,1.673-1.571a1.478,1.478,0,0,0-.805-.93,1.864,1.864,0,0,0-.931-.115c-.122,0-1.241.409-.766-.082l-.779-.1a.812.812,0,0,1,.238.66.5.5,0,0,0,.742.426.66.66,0,0,1,.894.772.5.5,0,0,0,.9.383c.33-.594.729-1.775.234-2.4a1.056,1.056,0,0,0-1.363-.049,4.772,4.772,0,0,0-.68.584c-.4.353-.66.518-.511-.158a4.279,4.279,0,0,1,2.495-2.7l-.726-.558a10.434,10.434,0,0,1-2,3.91l.845.35a2.2,2.2,0,0,1,1.346-2.148h-.485l.257.422c-.1.624.858.891.954.261.125-.815-.389-1.874-1.343-1.475a3.108,3.108,0,0,0-1.706,2.94c0,.4.561.7.848.353a11.634,11.634,0,0,0,2.247-4.352.5.5,0,0,0-.729-.558,5.533,5.533,0,0,0-2.4,2.092c-.4.66-.907,1.689-.5,2.448a1.049,1.049,0,0,0,1.435.406,3.859,3.859,0,0,0,.828-.66c.122-.109.257-.3.419-.33.145-.1.139-.043-.023.175a1.8,1.8,0,0,1-.287.964l.9.379a1.65,1.65,0,0,0-2.346-1.891l.746.429a1.8,1.8,0,0,0-.373-1.165.5.5,0,0,0-.775-.1,1.3,1.3,0,0,0,.033,1.917c.472.36.7,0,1.221-.082,1.759-.228.732.564.112.591a2.339,2.339,0,0,1-.828-.059q-1.033-.35-.129-.9c.591.241.845-.716.264-.954Z" transform="translate(-308.295 -255.851)"/><path class="f" d="M391.007,361.143c.406,1.32-1.27,1.755-2.066,2.211a4.6,4.6,0,0,0-1.429,1.251,9.554,9.554,0,0,0-1.416,3.87c-.125.624.828.888.957.264a11.219,11.219,0,0,1,.835-2.848,5.028,5.028,0,0,1,2.554-2.184c1.109-.607,1.91-1.548,1.518-2.828-.185-.607-1.142-.346-.954.264Z" transform="translate(-300.208 -264.999)"/><path class="f" d="M395.284,360.37a.957.957,0,0,0-.825.99c0,.393.261.643.439.957a7.555,7.555,0,0,1,.957,2.082,4.492,4.492,0,0,1-.056,2.64c-.683,1.224-1.917.99-2.97.99-.99,0-1.755.33-1.722-1.049a4.389,4.389,0,0,1,.99-2.171l-.9-.119a17.24,17.24,0,0,1,.3,3.055c0,.459.7.713.921.247a19.116,19.116,0,0,0,1.257-3.478l-.973-.132.172,2.508a.5.5,0,0,0,.921.251,1.121,1.121,0,0,0,.247-.445c.033-.155-.271-1.2-.393-.828l.97.132.069-2.382-.99.132a4.93,4.93,0,0,1,.185,2.079c-.063.551.865.676.99.132l.62-3.2-.9.115a2.188,2.188,0,0,1,.168,1.425c-.073.634.917.627.99,0a3.478,3.478,0,0,0-.3-1.924.5.5,0,0,0-.9.119l-.624,3.2.973.132a5.4,5.4,0,0,0-.221-2.339.495.495,0,0,0-.97.129L393.624,366a.5.5,0,0,0,.973.132l.053-.162a.5.5,0,0,0-.125-.482c-1.026-1.115-1.234.66-1.59,1.152l.924.251-.172-2.508a.5.5,0,0,0-.973-.132,17.738,17.738,0,0,1-1.155,3.244l.924.251a18.658,18.658,0,0,0-.33-3.319c-.086-.455-.683-.436-.9-.119-.66.95-1.8,3.026-.921,4.164.769.99,3.187.607,4.22.544,1.63-.092,2.221-1.125,2.4-2.663a6.52,6.52,0,0,0-.122-2.2c-.089-.389-.99-2.857-1.26-2.808.627-.115.36-1.072-.264-.957Z" transform="translate(-302.835 -264.889)"/><path class="f" d="M394.285,364.342l-2.7,3.567.855.5,1.98-2.864-.9-.383-.987,3.765a.5.5,0,0,0,.9.383,17.388,17.388,0,0,1,1.508-2.122l-.825-.482a5.389,5.389,0,0,1-1.244,2.287l.828.482a4.422,4.422,0,0,1,.36-1.32c.254-.571-.551-1.076-.855-.5a11.615,11.615,0,0,1-.954,1.5l.9.119.2-.94-.9-.119.145.825a.5.5,0,0,0,.828.218,9.853,9.853,0,0,0,1.98-2.986h-.851a4.443,4.443,0,0,1,.465,1.32c.119.594.907.373.97-.132a26.833,26.833,0,0,0,.218-3.333h-.99V366.2c0,.538.881.7.973.132a3.782,3.782,0,0,1,.485-1.419h-.868a2.2,2.2,0,0,1,.33,1.122.495.495,0,0,0,.99,0l.125-.66H396.3c.1.584.459,3.874-.832,3.488-.218-.053-.28-.04-.188.036l.294-.627.69-1.462-.924-.251a3.621,3.621,0,0,1-.287,2.231,1.709,1.709,0,0,1-1.864.383,3.3,3.3,0,0,1-.861-.9l-.676.66c.548.4,1.435,1.379,2.141,1.435.538.043.99-.4,1.343-.759a5.751,5.751,0,0,0,1.613-4.233.495.495,0,0,0-.99,0V366.5a.495.495,0,0,0,.99,0v-2.768a.495.495,0,1,0-.99,0,11.882,11.882,0,0,1-.172,1.98l.973.132a22.783,22.783,0,0,1-.109-2.372.495.495,0,0,0-.97-.132c-.148.63-.33,1.251-.5,1.868l.9-.119-.069-.264c-.046-.63-1.036-.634-.99,0a1.812,1.812,0,0,0,.2.766.5.5,0,0,0,.9-.119c.188-.62.356-1.241.5-1.868l-.973-.132a22.809,22.809,0,0,0,.109,2.372c.05.508.868.726.97.132a13.634,13.634,0,0,0,.208-2.257h-.99v2.768h.99v-1.128h-.99a4.758,4.758,0,0,1-1.2,3.392,4.054,4.054,0,0,1-.416.409c-.234.224-.449.191-.637-.1a8.246,8.246,0,0,1-1.363-.99c-.409-.294-.97.287-.68.676.759,1.01,1.891,2.135,3.3,1.65,1.482-.525,1.683-2.531,1.571-3.851-.036-.439-.693-.736-.921-.247-.33.7-.66,1.389-.99,2.089a1.845,1.845,0,0,0-.3.871c.109.742,1.01.62,1.564.577,2.148-.162,1.808-3.207,1.561-4.738-.082-.508-.822-.429-.954,0a2.913,2.913,0,0,0-.162.937h.99a3.923,3.923,0,0,0-.465-1.62.5.5,0,0,0-.855,0,4.81,4.81,0,0,0-.587,1.65l.99.132v-2.075a.495.495,0,1,0-.99,0,26.833,26.833,0,0,1-.218,3.333l.973-.132a5.665,5.665,0,0,0-.564-1.544.5.5,0,0,0-.855,0,9.028,9.028,0,0,1-1.825,2.785l.828.218-.145-.825c-.076-.439-.7-.452-.9-.119a2.171,2.171,0,0,0-.3,1.7c.082.469.676.419.9.119a11.584,11.584,0,0,0,.954-1.495l-.855-.5a5.631,5.631,0,0,0-.462,1.554c-.059.436.459.891.828.482a6.6,6.6,0,0,0,1.5-2.725c.122-.449-.5-.874-.828-.482a18.9,18.9,0,0,0-1.65,2.31l.9.383,1.006-3.752a.5.5,0,0,0-.9-.383l-1.98,2.867c-.37.531.478.99.855.5l2.693-3.564c.383-.508-.475-.99-.855-.5Z" transform="translate(-303.753 -266.637)"/><path class="f" d="M526.253,332.486c3.959-2.422,7.107-6.035,10.6-9.057,3.795-3.276,7.777-6.329,11.879-9.219,7.965-5.609,16.33-10.628,24.688-15.634a.495.495,0,0,0-.5-.855c-8.358,5.006-16.726,10.014-24.691,15.634-3.758,2.64-7.427,5.438-10.945,8.407-3.828,3.234-7.236,7.259-11.549,9.869-.544.33-.046,1.188.5.855Z" transform="translate(-393.625 -222.872)"/><path class="f" d="M682.551,253.844c-4.289.436-8.909,1.528-11.549,5.279-2.28,3.227-2.231,8.856-.089,12.169,2.432,3.765,7.4,3.9,11.262,2.683s7.856-3.352,7.82-7.965a19.25,19.25,0,0,0-1.9-7.3c-.851-1.937-2.359-3.63-4.643-3.415-.63.059-.637,1.049,0,.99,3.059-.284,4.042,3.349,4.768,5.642.66,2.141,1.27,4.676.234,6.8s-3.534,3.214-5.669,3.993a11.857,11.857,0,0,1-7.259.66c-4.778-1.336-6.1-7.391-4.722-11.687,1.584-4.949,7.193-6.4,11.763-6.867.627-.063.633-1.053,0-.99Z" transform="translate(-489.972 -193.511)"/><path class="f" d="M702.551,369.844c-4.289.436-8.909,1.528-11.549,5.279-2.28,3.227-2.231,8.856-.089,12.169,2.432,3.765,7.4,3.9,11.262,2.683s7.856-3.352,7.82-7.965a19.247,19.247,0,0,0-1.9-7.3c-.851-1.937-2.359-3.63-4.643-3.415-.63.059-.637,1.049,0,.99,3.059-.284,4.042,3.349,4.768,5.642.66,2.141,1.27,4.676.234,6.8s-3.534,3.214-5.669,3.993a11.857,11.857,0,0,1-7.259.66c-4.778-1.336-6.1-7.391-4.722-11.687,1.584-4.949,7.193-6.4,11.763-6.866.627-.063.633-1.053,0-.99Z" transform="translate(-503.373 -271.235)"/><path class="f" d="M689.607,248.788l3.125,3.564a.5.5,0,0,0,.825-.221c.66-1.736.535-3.534.69-5.359a17.643,17.643,0,0,1,1.4-5.467,18.454,18.454,0,0,1,7.385-8.464c.544-.33.046-1.188-.5-.855a19.376,19.376,0,0,0-7.467,8.2,18.963,18.963,0,0,0-1.65,5.236c-.33,2.141-.03,4.385-.822,6.441l.828-.221-3.108-3.557c-.422-.478-1.119.224-.7.7Z" transform="translate(-503.499 -178.817)"/><path class="f" d="M531.628,411.871q25.529-.779,51.072-.33a.5.5,0,0,0,0-.99q-25.536-.455-51.072.33C530.991,410.9,530.988,411.89,531.628,411.871Z" transform="translate(-397.406 -298.4)"/><path class="f" d="M697.519,383.3a102.266,102.266,0,0,1,16.719,8.4c.541.33,1.039-.518.5-.855a103.35,103.35,0,0,0-16.94-8.5c-.591-.234-.848.723-.261.954Z" transform="translate(-508.669 -279.589)"/><path class="f" d="M710.473,371.388a40.421,40.421,0,0,0-9.7,24.592c-.026.637.964.637.99,0a39.312,39.312,0,0,1,9.414-23.893c.412-.482-.284-1.185-.7-.7Z" transform="translate(-511.057 -272.162)"/><path class="f" d="M329.233,400.774l36.88-.482,4.24-.056c.762,0,1.524-.026,2.287-.03a1.819,1.819,0,0,1,1.775,1.98c-.049,2.31-1.5,2.227-3.4,2.31l-4.583.208-18.663.822c-3.343.149-6.688.33-10.031.445-3.016.092-8.751-.891-7.411-5.279.185-.61-.769-.871-.957-.264a4.863,4.863,0,0,0,2.389,5.481c2.669,1.6,6.187,1.059,9.133.927L363.8,405.8l5.563-.247c1.425-.066,3.409.224,4.718-.439,1.538-.775,1.808-3.854.838-5.151a2.294,2.294,0,0,0-1.98-.749c-2.052-.079-4.141.056-6.2.083l-11.423.152-26.1.33a.5.5,0,0,0,0,.99Z" transform="translate(-261.786 -290.897)"/><g transform="translate(211.816 74.116)"><path class="g" d="M772.4,757.307c-.832.521-1.782.815-2.64,1.274a3.612,3.612,0,0,0-1.937,2.1,1.32,1.32,0,0,0,.043.9,1.742,1.742,0,0,0,.924.733,14.02,14.02,0,0,0,11.09.125,14.619,14.619,0,0,1,1.914-.759,12.431,12.431,0,0,1,2.452-.251,18.851,18.851,0,0,0,2.577-.33,2.267,2.267,0,0,0,1.168-.485,2.168,2.168,0,0,0,.525-1.26,10.378,10.378,0,0,0-1.65-7.352,2.486,2.486,0,0,0-.719-.762,2.776,2.776,0,0,0-1.145-.307c-1.65-.2-3.379-.571-5.045-.61a3.389,3.389,0,0,0-2.64,1.363C775.568,753.426,774.549,755.964,772.4,757.307Z" transform="translate(-767.762 -600.285)"/><path class="g" d="M855.105,756.743a7.543,7.543,0,0,0,1.175,4.62,6.1,6.1,0,0,0,1.6,1.4,7.224,7.224,0,0,0,7,.686,2.079,2.079,0,0,0,.871-.733,2.5,2.5,0,0,0-.03-1.924l-3.161-10.955c-2.042.314-5.045.535-6.86,1.571C854.389,752.16,855.105,755.3,855.105,756.743Z" transform="translate(-826.155 -599.965)"/><path class="h" d="M772.908,560.284c-.191.6-.884.884-1.264,1.392a2.643,2.643,0,0,0-.237,2.151,5.69,5.69,0,0,0,1.448,2.854,3.422,3.422,0,0,0,2.97,1.01,2.475,2.475,0,0,0,2.016-2.221,4.207,4.207,0,0,0-.31-1.429l-2.25-6.507a.246.246,0,0,0-.406-.178c-.531.251-1.6.515-1.907,1.066S773.133,559.686,772.908,560.284Z" transform="translate(-770.127 -470.96)"/><path class="g" d="M773,554.4a10.665,10.665,0,0,0,2.31-.927,2.383,2.383,0,0,1,2.379.089c.185.152.363.36.6.356a23.621,23.621,0,0,0-1.478-4.7.366.366,0,0,0-.129-.181.373.373,0,0,0-.28,0l-2.221.581c-.822.214-.917.148-.855.957C773.346,550.932,773.531,554.4,773,554.4Z" transform="translate(-771.272 -465.399)"/><path class="i" d="M769.565,422.675a3.128,3.128,0,0,0-.33,1.739,59.128,59.128,0,0,0,.462,8.747c.1.693.231,1.386.3,2.085a24.04,24.04,0,0,1,.046,2.927l-.33,12.7c-.04,1.554-.119,3.224-1.079,4.445a2.125,2.125,0,0,0-.386,1.409c.251,3.187.779,6.348,1.3,9.5a5.87,5.87,0,0,1,5.326.254,58.619,58.619,0,0,0,2.735-16.168,64.176,64.176,0,0,1,.376-8.091,51.472,51.472,0,0,0-.1-13.624,7.53,7.53,0,0,0-1.422-4.016,6.088,6.088,0,0,0-3.3-1.9C771.944,422.365,770.852,422.695,769.565,422.675Z" transform="translate(-768.081 -380.665)"/><path class="e" d="M769.565,422.675a3.128,3.128,0,0,0-.33,1.739,59.128,59.128,0,0,0,.462,8.747c.1.693.231,1.386.3,2.085a24.04,24.04,0,0,1,.046,2.927l-.33,12.7c-.04,1.554-.119,3.224-1.079,4.445a2.125,2.125,0,0,0-.386,1.409c.251,3.187.779,6.348,1.3,9.5a5.87,5.87,0,0,1,5.326.254,58.619,58.619,0,0,0,2.735-16.168,64.176,64.176,0,0,1,.376-8.091,51.472,51.472,0,0,0-.1-13.624,7.53,7.53,0,0,0-1.422-4.016,6.088,6.088,0,0,0-3.3-1.9C771.944,422.365,770.852,422.695,769.565,422.675Z" transform="translate(-768.081 -380.665)"/><path class="j" d="M782.289,525.565A58.275,58.275,0,0,0,785.76,559.3a9.148,9.148,0,0,1,.805,2.494c.182,1.617-.564,3.171-.99,4.735-.99,3.557-.419,7.345.214,10.984q.4,2.277.815,4.55c.274,1.478.538,3.085-.148,4.425.591,2.462.94,4.9,1.531,7.361a1.4,1.4,0,0,1,.056.6,1.778,1.778,0,0,1-.6.808,3.61,3.61,0,0,0-.921,3.455c1.508-1.082,3.61-.7,5.332,0s3.418,1.65,5.279,1.65c-.271-2.184-.531-4.478.274-6.527.469-1.188,1.293-2.31,1.27-3.58-.023-1.138-.719-2.155-.888-3.28a8.3,8.3,0,0,1,.079-2.1,52.465,52.465,0,0,0-.561-12.149,7.26,7.26,0,0,0-.554-2.31,3.412,3.412,0,0,1-.578-1.462c0-.617.5-1.119.683-1.706.33-1.082-.277-2.554.637-3.224,2.409-1.768,1.485-5.992,1.432-8.978q-.063-3.864-.33-7.721a32.887,32.887,0,0,1,1.821,13.311,9.529,9.529,0,0,0,.277,4.4c.442,1.049,1.32,1.914,1.557,3.026a12.666,12.666,0,0,1,.076,2.1,2.159,2.159,0,0,0,.874,1.815c.046,3.181.33,6.583.379,9.764a24.086,24.086,0,0,0,.4,4.85,6.181,6.181,0,0,1,.244,1.564,6.533,6.533,0,0,1-.521,1.924,11.031,11.031,0,0,0,1.65,10.179,4.919,4.919,0,0,1,3.986-2.231,14.457,14.457,0,0,1,4.682.686,9.17,9.17,0,0,1,1.1-5.576,4.566,4.566,0,0,0,.578-1.241,5.5,5.5,0,0,0-.462-2.5,12.573,12.573,0,0,1-.152-4.121,65.223,65.223,0,0,0-.61-13.832,11.722,11.722,0,0,0-.63-2.64c-.119-.3-.264-.594-.363-.9a7.1,7.1,0,0,1-.264-1.689l-.379-5.279c-.267-3.7.947-7.352,1.795-10.961.379-1.617.792-3.23,1.046-4.874.346-2.237.4-4.524.911-6.731a43.4,43.4,0,0,0,1.449-5.939c.264-3.145-1.043-6.183-2.31-9.067-.528-1.188-2.524-1.069-3.808-1.28-9.1-1.495-18.692-1.5-27.278,1.864A6.787,6.787,0,0,0,782.289,525.565Z" transform="translate(-776.773 -446.715)"/><path class="h" d="M801.643,351.572l1.01,3.927a10.493,10.493,0,0,1,.452,2.775,2.049,2.049,0,0,1-.221.99,2.359,2.359,0,0,1-.627.64c-.69.525-1.168,1.749-1.957,2.112.406.706.967.247,1.7.6a18.448,18.448,0,0,0,3.87,1.838,8.634,8.634,0,0,0,4.016-.33,13.866,13.866,0,0,0,5.2-2.419c1.495-1.218,2.346-2.293,2.339-4.217-1.65.195-3.118-1.472-3.847-2.97a8.069,8.069,0,0,1-.554-1.779l-.884-3.89a19.059,19.059,0,0,0-2.669,1.26,9.692,9.692,0,0,1-3.032.439,32.665,32.665,0,0,0-5.4.7c-.244.05-.551.2-.492.442" transform="translate(-789.564 -331.287)"/><path class="e" d="M801.643,351.572l1.01,3.927a10.493,10.493,0,0,1,.452,2.775,2.049,2.049,0,0,1-.221.99,2.359,2.359,0,0,1-.627.64c-.69.525-1.168,1.749-1.957,2.112.406.706.967.247,1.7.6a18.448,18.448,0,0,0,3.87,1.838,8.634,8.634,0,0,0,4.016-.33,13.866,13.866,0,0,0,5.2-2.419c1.495-1.218,2.346-2.293,2.339-4.217-1.65.195-3.118-1.472-3.847-2.97a8.069,8.069,0,0,1-.554-1.779l-.884-3.89a19.059,19.059,0,0,0-2.669,1.26,9.692,9.692,0,0,1-3.032.439,32.665,32.665,0,0,0-5.4.7c-.244.05-.551.2-.492.442" transform="translate(-789.564 -331.287)"/><circle class="h" cx="8.737" cy="8.737" r="8.737" transform="translate(7.678 4.975)"/><path class="g" d="M804.2,368.233a7.919,7.919,0,0,1,1.98-2.64c1.231-1.079,2.913-1.953,3.2-3.564l2.666,3.1a1.436,1.436,0,0,1,.33.508,1.28,1.28,0,0,1-.251,1.026,10.685,10.685,0,0,1-2.683,2.567,81.487,81.487,0,0,0-6.464,5.7.66.66,0,0,1-.346.211.623.623,0,0,1-.36-.1,15.009,15.009,0,0,1-4.61-3.748c-.1-.115-.214-.247-.37-.238a.476.476,0,0,0-.248.129c-.888.726-1.858,1.594-3,1.482a7.1,7.1,0,0,0,2.62-4.619,8.736,8.736,0,0,1,.376-1.8,1.884,1.884,0,0,1,1.287-1.221,2.9,2.9,0,0,0,.739,3.544,7.286,7.286,0,0,0,3.273,1.587C803.467,370.368,803.8,369.1,804.2,368.233Z" transform="translate(-785.376 -340.118)"/><path class="g" d="M782.009,524.372c1.244.307,2.422.828,3.63,1.214a17.347,17.347,0,0,0,6.814.716,3.68,3.68,0,0,0,1.98-.63c.155-.125.3-.274.462-.389a3.23,3.23,0,0,1,.888-.366c3.026-.947,5.56-2.99,8.018-4.989.079-.066.168-.148.162-.254a.33.33,0,0,0-.1-.188L802.569,518a53.479,53.479,0,0,1-10.308.274,14.952,14.952,0,0,0-2.119.056c-.68.079-1.349.251-2.019.4-2.544.554-5.144.766-7.721,1.128a1.191,1.191,0,0,0-.511.158,1.152,1.152,0,0,0-.274.3l-.9,1.27a4,4,0,0,0-.759,1.455c-.211.99.231,1.32,1.072,1.191A7.833,7.833,0,0,1,782.009,524.372Z" transform="translate(-774.556 -444.623)"/><path class="i" d="M787.369,379.79a16.074,16.074,0,0,0-3.4-2.656,4.821,4.821,0,0,0-1.65-.66,2.059,2.059,0,0,0-1.689.416c-.294.261-.478.624-.762.9a3.791,3.791,0,0,1-1.208.683,21.421,21.421,0,0,0-4.243,2.419,9.735,9.735,0,0,0-1.924,1.775c-1.495,1.914-1.719,4.517-1.68,6.946.03,1.689,1.65,2.943,2.765,4.207a31,31,0,0,1,2.831,3.96,5.392,5.392,0,0,1,1.152,3.112c-.063.927-.6,1.8-.518,2.722.03.33.135.634.165.954a10.74,10.74,0,0,1-.267,1.98,25.176,25.176,0,0,0,.231,2.8,8.91,8.91,0,0,1-.244,1.91c-.634,3.016-1.429,6.048-1.267,9.127l-1.828.33a1.544,1.544,0,0,1-.353,2.465c2.854.954,5.939.472,8.965.469,2.5,0,5,.33,7.5.284a12.963,12.963,0,0,0,7.144-1.914c.561-.383,1.076-.831,1.666-1.165a8.219,8.219,0,0,1,2.524-.825,25.046,25.046,0,0,1,4.949-.442,3.81,3.81,0,0,0,2.343-.455,3.348,3.348,0,0,0,.99-2.409c.1-.937.155-1.878.172-2.818a12.139,12.139,0,0,0-.115-2.191,14.357,14.357,0,0,0-.386-1.571l-1.244-4.382c-.515-1.808.2-3.791.353-5.665a1.421,1.421,0,0,0-.3-1.241c-.122-.1-.29-.172-.33-.33a.565.565,0,0,1,.079-.442,24.414,24.414,0,0,1,2.554-3.676,75.116,75.116,0,0,0,4.223-6.49,20.883,20.883,0,0,0-5.589-12.5,6.049,6.049,0,0,0-2.339-1.726,6.93,6.93,0,0,0-1.861-.3c-2.587-.175-5.279-.33-7.533-1.63a1.433,1.433,0,0,0-.538-.228c-.5-.056-.861.436-1.185.825a14.2,14.2,0,0,1-3.131,2.287A22.2,22.2,0,0,0,787.369,379.79Z" transform="translate(-769.803 -346.481)"/><path class="i" d="M877.979,417.642a24.777,24.777,0,0,1,.634,5.071,19.728,19.728,0,0,0,.538,3.039,4.849,4.849,0,0,0,.627,1.548,6.807,6.807,0,0,1,.911,1.28,3.1,3.1,0,0,1,.135,1.029l.04,2.277a8.188,8.188,0,0,1-.538,3.544l-1.422,4.326a26.513,26.513,0,0,1-2.943,6.761,1.949,1.949,0,0,1-.848.8,4.117,4.117,0,0,1-.855.132,2.2,2.2,0,0,0-1.811,2.135,5.012,5.012,0,0,0-1.218-1.244l-2.894-2.31a12.368,12.368,0,0,0-3.224-2.089,8.741,8.741,0,0,0,6.078-7.345,3.3,3.3,0,0,1,.33-1.445c.241-.389.686-.686.719-1.145.039-.577-.614-1.013-.614-1.59,0-.383.284-.7.409-1.059a2.659,2.659,0,0,0,0-1.356l-.4-2.217a1.693,1.693,0,0,0-.2-.634,4.105,4.105,0,0,0-.5-.521c-.686-.769-.383-1.98,0-2.927a27.978,27.978,0,0,1,3.372-5.916,20.223,20.223,0,0,0,1.343-1.92c.35-.607.429-1.449.8-1.98C876.929,415.127,877.573,416.358,877.979,417.642Z" transform="translate(-832.989 -374.859)"/><path class="g" d="M861,504.766a1.591,1.591,0,0,0-.376.4,3.335,3.335,0,0,1-1.495,1.066c.33.238.63.472.94.713a41.2,41.2,0,0,1,6.269,6c.208-.742,1.452-.69,1.755-1.4a1.369,1.369,0,0,0,.066-.634,19.317,19.317,0,0,0-.475-3.3,3.734,3.734,0,0,0-.66-1.544A3.959,3.959,0,0,0,865.158,505C864.119,504.641,862.057,504.129,861,504.766Z" transform="translate(-828.982 -435.554)"/><path class="h" d="M841.466,511.1a17.38,17.38,0,0,1-2.97,2.151,11.177,11.177,0,0,0-2.366,1.043,2.351,2.351,0,0,0,2.244,1.214,5.333,5.333,0,0,0,2.511-.921c.59-.363,1.284-.785,1.927-.531.1.5-.33.973-.33,1.482a1.493,1.493,0,0,0,.838,1.145c1.98,1.277,4.527,1.171,6.886,1.023a.62.62,0,0,0,.379-.112.6.6,0,0,0,.142-.435c.03-.521.043-1.039.046-1.561a2.237,2.237,0,0,0-.957-2.2,26.935,26.935,0,0,0-4.125-2.92C844.24,509.629,842.769,510.127,841.466,511.1Z" transform="translate(-813.571 -439.291)"/><path class="j" d="M821.944,326.064a2.291,2.291,0,1,0,2.92,1.927A2.489,2.489,0,0,0,821.944,326.064Zm.5,4.144a1.94,1.94,0,1,1,2.016-2.168A2.112,2.112,0,0,1,822.443,330.208Z" transform="translate(-802.461 -316.004)"/><path class="j" d="M800.3,328.664a2.291,2.291,0,1,0,2.92,1.924A2.488,2.488,0,0,0,800.3,328.664Zm.5,4.141a1.939,1.939,0,1,1,2.016-2.168A2.107,2.107,0,0,1,800.8,332.8Z" transform="translate(-787.961 -317.746)"/><path class="j" d="M663.012,259.64l3.184.68-.313.838-3-.881Z" transform="translate(-655.971 -248.085)"/><path class="j" d="M711.107,253.18,708.17,254.6l.5.739,2.709-1.567Z" transform="translate(-686.317 -243.757)"/><path class="j" d="M687.31,260.517l2.234-.267-.115.554-1.917.129Z" transform="translate(-672.34 -248.494)"/><path class="k" d="M788.985,306.9a3.544,3.544,0,0,0,.33-1.442,3.083,3.083,0,0,1,.152-.878,2.457,2.457,0,0,1,.719-.921,6.655,6.655,0,0,1,3.96-1.383,9.154,9.154,0,0,1,4.58.99,3.563,3.563,0,0,1,1.138.845c.462.564.561,1.293,1.026,1.851a2.7,2.7,0,0,0,2.528.792,13.141,13.141,0,0,0,.033-1.769,8.555,8.555,0,0,1,.525-1.465,3.6,3.6,0,0,0-1.772-4.157,6.836,6.836,0,0,1-1.577-.99,7.461,7.461,0,0,1-.776-1.353,3.6,3.6,0,0,0-4.088-1.185c-.455.172-.858.432-1.32.617a10.879,10.879,0,0,1-2.778.535,8.51,8.51,0,0,0-2.693.706,3.015,3.015,0,0,0-1.686,1.821c-.089.356-.069.726-.158,1.079-.455,1.792-3.4,2.663-3.56,4.491a2.62,2.62,0,0,0,.749,1.831c.31.366,1.053,1.346,1.577,1.488s.924-.356,1.425-.528C788.111,307.625,788.589,307.572,788.985,306.9Z" transform="translate(-778.348 -295.621)"/></g><path class="c" d="M912.81,682c0,16.577,10.4,29.994,23.252,29.994" transform="translate(-653.133 -480.393)"/><path class="f" d="M983.28,711.32c0-16.765,11.608-30.33,25.952-30.33" transform="translate(-700.351 -479.716)"/><path class="l" d="M938.35,686.56c0,15.749,6.632,28.492,14.825,28.492" transform="translate(-670.246 -483.449)"/><path class="c" d="M983.28,694.207c0-21.421,13.416-38.757,29.994-38.757" transform="translate(-700.351 -462.604)"/><ellipse class="a" cx="5.781" cy="0.977" rx="5.781" ry="0.977" transform="translate(276.142 235.378)"/><path class="m" d="M968.46,769.932s3.3-.1,4.289-.808,5.072-1.554,5.319-.419,4.949,5.646,1.231,5.675-8.652-.581-9.641-1.185S968.46,769.932,968.46,769.932Z" transform="translate(-690.421 -538.117)"/><path class="n" d="M979.369,777.6c-3.722.03-8.648-.581-9.641-1.185-.756-.459-1.056-2.112-1.158-2.871h-.109s.208,2.66,1.2,3.263,5.92,1.214,9.641,1.185c1.076,0,1.445-.393,1.425-.957C980.58,777.374,980.187,777.589,979.369,777.6Z" transform="translate(-690.421 -541.728)"/><path class="c" d="M148.31,711.36c0,13.2,8.272,23.863,18.5,23.863" transform="translate(-140.889 -500.065)"/><path class="f" d="M204.37,734.68c0-13.337,9.239-24.13,20.646-24.13" transform="translate(-178.451 -499.523)"/><path class="l" d="M168.62,715c0,12.539,5.279,22.668,11.8,22.668" transform="translate(-154.498 -502.505)"/><path class="c" d="M204.37,721.065c0-17.043,10.674-30.835,23.863-30.835" transform="translate(-178.451 -485.908)"/><ellipse class="a" cx="4.6" cy="0.779" rx="4.6" ry="0.779" transform="translate(20.517 238.16)"/><path class="m" d="M192.58,781.271s2.623-.082,3.412-.66,4.039-1.237,4.233-.33,3.943,4.491.99,4.514-6.883-.462-7.672-.94S192.58,781.271,192.58,781.271Z" transform="translate(-170.552 -545.945)"/><path class="n" d="M201.258,787.447c-2.97.023-6.883-.462-7.672-.944-.6-.363-.838-1.68-.921-2.283h-.086s.165,2.115.954,2.6,4.712.963,7.672.94c.855,0,1.152-.31,1.135-.762C202.222,787.259,201.895,787.427,201.258,787.447Z" transform="translate(-170.552 -548.884)"/></g></svg>