<svg xmlns="http://www.w3.org/2000/svg" width="290.569" height="251.818" viewBox="0 0 290.569 251.818"><defs><style>.a{fill:#3f3d56;}.b{fill:#f2f2f2;}.c{fill:#47bdb7;}.d{fill:#2f2e41;}.e{fill:#ff5d58;}.f{fill:#a0616a;}.g{fill:#d0cde1;}.h{opacity:0.1;}</style></defs><g transform="translate(0 0)"><ellipse class="a" cx="20.296" cy="3.141" rx="20.296" ry="3.141" transform="translate(5.493 209.188)"/><circle class="b" cx="103.583" cy="103.583" r="103.583" transform="translate(66.139 18.559)"/><path class="a" d="M449.067,269.655c-1.2,0-2.407-.019-3.594-.056l.027-.862c1.7.053,3.445.068,5.158.044l.012.863Q449.87,269.655,449.067,269.655Zm6.8-.2-.051-.861c1.707-.1,3.437-.242,5.14-.421l.09.858c-1.716.18-3.459.323-5.18.424Zm-15.579-.134c-1.722-.132-3.462-.3-5.172-.515l.105-.856c1.7.208,3.423.38,5.132.51Zm25.913-.949-.129-.853c1.7-.258,3.406-.556,5.08-.889l.168.846c-1.687.335-3.409.637-5.118.9Zm-36.226-.316c-1.7-.288-3.418-.62-5.1-.985l.183-.844c1.672.363,3.376.692,5.064.978Zm46.417-1.71-.207-.838c1.665-.412,3.34-.867,4.977-1.353l.245.828c-1.65.489-3.337.948-5.015,1.363Zm-56.572-.495c-1.668-.444-3.347-.932-4.99-1.452l.26-.823c1.63.515,3.3,1,4.952,1.44Zm66.534-2.461-.283-.815c1.616-.562,3.241-1.169,4.831-1.806l.32.8c-1.6.641-3.24,1.253-4.868,1.819Zm-76.455-.676c-1.62-.6-3.251-1.238-4.846-1.91l.335-.8c1.583.667,3.2,1.3,4.809,1.9Zm86.093-3.18-.357-.786c1.552-.705,3.112-1.458,4.636-2.237l.393.769c-1.536.785-3.108,1.544-4.672,2.254Zm-95.689-.861c-1.558-.742-3.121-1.532-4.646-2.347l.407-.761c1.514.809,3.065,1.592,4.611,2.329Zm104.925-3.86-.427-.749c1.488-.849,2.974-1.742,4.415-2.654l.461.729c-1.452.919-2.949,1.819-4.449,2.674Zm-114.1-1.044c-1.482-.881-2.965-1.811-4.409-2.762l.475-.721c1.433.944,2.905,1.866,4.376,2.741Zm122.875-4.506-.494-.707c1.4-.979,2.8-2,4.157-3.047l.526.684c-1.367,1.051-2.776,2.084-4.189,3.07Zm-131.562-1.216c-1.393-1.012-2.785-2.072-4.137-3.151l.539-.674c1.342,1.071,2.723,2.123,4.105,3.127Zm139.8-5.113-.556-.66c1.306-1.1,2.606-2.251,3.864-3.414l.586.634c-1.268,1.172-2.577,2.33-3.894,3.44Zm-147.92-1.375c-1.3-1.136-2.587-2.318-3.831-3.513l.6-.623c1.235,1.186,2.514,2.359,3.8,3.487Zm155.548-5.68-.615-.606c1.2-1.22,2.4-2.483,3.54-3.753l.641.577c-1.153,1.28-2.353,2.552-3.567,3.782ZM366.81,234.365c-1.19-1.252-2.366-2.546-3.494-3.846l.652-.566c1.12,1.29,2.286,2.574,3.468,3.816Zm170-6.206-.667-.548c1.088-1.324,2.159-2.69,3.184-4.061l.691.517c-1.033,1.382-2.112,2.759-3.209,4.092ZM360,226.52c-1.069-1.351-2.122-2.746-3.129-4.145l.7-.5c1,1.389,2.044,2.773,3.105,4.114Zm183.039-6.688-.714-.485c.963-1.417,1.906-2.876,2.8-4.337l.736.452C544.959,216.933,544.01,218.4,543.04,219.832Zm-189.1-1.739c-.941-1.442-1.861-2.926-2.736-4.411l.743-.438c.869,1.474,1.782,2.947,2.716,4.377Zm194.55-7.126-.755-.417c.829-1.5,1.634-3.04,2.394-4.578l.774.383C550.13,207.9,549.32,209.455,548.486,210.966ZM348.67,209.151c-.805-1.522-1.586-3.083-2.32-4.64l.781-.368c.729,1.545,1.5,3.094,2.3,4.6ZM553.1,201.635l-.791-.346c.688-1.571,1.348-3.18,1.963-4.781l.806.309c-.62,1.614-1.287,3.235-1.98,4.818Zm-208.85-1.863c-.662-1.588-1.3-3.213-1.883-4.83l.811-.3c.583,1.6,1.212,3.217,1.869,4.793Zm212.583-7.862-.819-.271c.539-1.623,1.047-3.282,1.511-4.931l.831.234c-.469,1.662-.982,3.334-1.523,4.969ZM340.7,190.019c-.514-1.645-1-3.325-1.434-5l.835-.219c.435,1.657.914,3.325,1.423,4.957Zm218.942-8.112-.841-.2c.387-1.664.74-3.363,1.05-5.049l.849.156c-.314,1.7-.67,3.412-1.059,5.089Zm-221.579-1.94c-.36-1.686-.686-3.4-.968-5.106l.851-.142c.281,1.69.6,3.394.961,5.067Zm223.46-8.28-.856-.117c.232-1.691.428-3.414.583-5.124l.86.078c-.157,1.723-.355,3.46-.587,5.164Zm-225.161-1.971c-.2-1.709-.371-3.449-.5-5.172l.861-.063c.125,1.711.291,3.438.493,5.134Zm226.1-8.377-.862-.039c.077-1.71.116-3.445.116-5.156h.863c0,1.724-.041,3.472-.118,5.195ZM335.6,159.354c-.03-1.058-.044-2.138-.045-3.209q0-1,.017-1.989l.863.015q-.017.985-.017,1.974c0,1.063.015,2.134.044,3.185Zm226.105-4.413c-.018-1.711-.075-3.446-.17-5.156l.862-.048c.1,1.723.153,3.471.172,5.195Zm-225.066-5.923-.861-.054c.108-1.725.257-3.467.442-5.178l.858.093C336.9,145.578,336.75,147.307,336.643,149.018Zm224.491-4.374c-.172-1.7-.387-3.423-.637-5.118l.854-.126c.252,1.707.468,3.442.642,5.157Zm-223.381-5.878-.853-.132c.264-1.708.572-3.429.913-5.116l.846.171C338.321,135.364,338.016,137.072,337.753,138.767Zm221.872-4.323c-.329-1.684-.7-3.379-1.1-5.038l.839-.2c.407,1.672.781,3.38,1.113,5.076ZM339.8,128.66l-.837-.21c.419-1.672.883-3.358,1.38-5.011l.827.248C340.674,125.328,340.214,127,339.8,128.66Zm217.388-4.235c-.481-1.644-1.007-3.3-1.563-4.914l.816-.281c.561,1.63,1.091,3.3,1.576,4.952ZM342.769,118.77l-.814-.286c.574-1.632,1.193-3.271,1.841-4.873l.8.324C343.953,115.524,343.338,117.151,342.769,118.77Zm211.065-4.1c-.63-1.589-1.3-3.183-2-4.739l.787-.354c.706,1.568,1.385,3.174,2.02,4.775ZM346.643,109.19l-.784-.36c.721-1.57,1.488-3.144,2.281-4.679l.767.4C348.12,106.07,347.359,107.632,346.643,109.19Zm202.966-3.9c-.773-1.524-1.591-3.051-2.433-4.538l.751-.425c.848,1.5,1.673,3.037,2.451,4.573Zm-198.228-5.278-.748-.431c.861-1.5,1.769-2.992,2.7-4.448l.727.464c-.923,1.445-1.824,2.931-2.678,4.414Zm193.157-3.684c-.912-1.452-1.867-2.9-2.839-4.3l.709-.492c.979,1.412,1.942,2.869,2.861,4.332Zm-187.6-5.017-.706-.5c1-1.411,2.035-2.818,3.093-4.181l.682.529C358.957,88.515,357.924,89.911,356.937,91.312Zm181.729-3.449c-1.04-1.362-2.123-2.717-3.221-4.026l.662-.554c1.105,1.319,2.2,2.683,3.245,4.056Zm-175.405-4.7-.657-.56c1.117-1.312,2.281-2.617,3.459-3.88l.631.589C365.525,80.561,364.37,81.857,363.261,83.159Zm168.784-3.2c-1.159-1.262-2.362-2.513-3.575-3.718l.609-.612c1.221,1.214,2.433,2.474,3.6,3.746ZM370.3,75.618l-.6-.617c1.234-1.208,2.512-2.4,3.8-3.548l.575.644C372.791,73.235,371.523,74.419,370.3,75.618Zm154.433-2.926c-1.271-1.153-2.583-2.289-3.9-3.379l.55-.665c1.326,1.1,2.649,2.243,3.929,3.4ZM377.989,68.75l-.545-.669c1.335-1.087,2.715-2.159,4.1-3.187l.514.693C380.683,66.607,379.314,67.671,377.989,68.75Zm138.793-2.636c-1.371-1.032-2.782-2.045-4.193-3.011l.487-.712c1.422.973,2.843,1.993,4.225,3.034Zm-130.514-3.5-.482-.716c1.429-.961,2.9-1.9,4.372-2.8l.448.738C389.146,60.726,387.686,61.66,386.268,62.614Zm121.995-2.327c-1.459-.9-2.957-1.783-4.452-2.616l.42-.754c1.507.84,3.016,1.727,4.487,2.636Zm-113.2-3.026-.414-.757c1.512-.827,3.062-1.63,4.607-2.386l.379.776c-1.534.75-3.072,1.546-4.572,2.367Zm104.174-2c-1.536-.765-3.109-1.5-4.676-2.2l.349-.789c1.579.7,3.165,1.443,4.713,2.214Zm-94.929-2.522-.343-.792c1.58-.685,3.2-1.341,4.8-1.952l.306.807C407.484,51.408,405.88,52.06,404.312,52.739Zm85.478-1.655c-1.6-.62-3.234-1.211-4.862-1.757l.275-.819c1.64.551,3.289,1.146,4.9,1.771Zm-75.85-2-.269-.82c1.64-.538,3.314-1.044,4.974-1.5l.231.832C417.229,48.047,415.569,48.55,413.941,49.083ZM480,47.8c-1.646-.469-3.325-.906-4.991-1.3l.2-.84c1.678.4,3.37.836,5.03,1.309Zm-56.125-1.474-.192-.841c1.682-.384,3.395-.734,5.091-1.04l.153.849C427.245,45.6,425.546,45.945,423.877,46.326Zm46.089-.892c-1.681-.315-3.393-.6-5.089-.834l.12-.855c1.709.24,3.435.523,5.129.841Zm-35.941-.939-.114-.856c1.709-.228,3.446-.42,5.165-.569l.075.86C437.445,44.078,435.721,44.268,434.025,44.494Zm25.73-.5c-1.7-.16-3.431-.284-5.144-.366l.042-.862c1.726.084,3.47.208,5.183.369ZM444.3,43.6l-.036-.862c1.586-.066,3.2-.1,4.806-.1h.391l0,.863h-.388c-1.59,0-3.2.034-4.77.1Z" transform="translate(-272.008 -42.636)"/><path class="c" d="M219.337,632.516c-2.591,9.577-11.465,15.508-11.465,15.508s-4.674-9.6-2.083-19.173,11.465-15.508,11.465-15.508S221.928,622.939,219.337,632.516Z" transform="translate(-181.808 -436.947)"/><path class="c" d="M173.367,632.516c2.591,9.577,11.465,15.508,11.465,15.508s4.674-9.6,2.083-19.173-11.465-15.508-11.465-15.508S170.776,622.939,173.367,632.516Z" transform="translate(-159.407 -436.947)"/><path class="a" d="M147.717,651.945c7.109,6.92,7.977,17.559,7.977,17.559s-10.658-.582-17.767-7.5-7.977-17.559-7.977-17.559S140.608,645.025,147.717,651.945Z" transform="translate(-129.95 -458.435)"/><path class="a" d="M221.22,651.945c-7.109,6.92-7.977,17.559-7.977,17.559s10.658-.582,17.767-7.5,7.977-17.559,7.977-17.559S228.33,645.025,221.22,651.945Z" transform="translate(-187.498 -458.435)"/><ellipse class="a" cx="26.269" cy="4.065" rx="26.269" ry="4.065" transform="translate(230.108 243.689)"/><path class="c" d="M967.13,718.555c-3.353,12.4-14.839,20.073-14.839,20.073s-6.049-12.42-2.7-24.816,14.839-20.073,14.839-20.073S970.483,706.16,967.13,718.555Z" transform="translate(-695.557 -492.495)"/><path class="c" d="M907.631,718.555c3.353,12.4,14.839,20.073,14.839,20.073s6.049-12.42,2.7-24.816-14.839-20.073-14.839-20.073S904.278,706.16,907.631,718.555Z" transform="translate(-666.564 -492.495)"/><path class="a" d="M874.432,743.7c9.2,8.957,10.325,22.727,10.325,22.727s-13.795-.753-23-9.71-10.325-22.727-10.325-22.727S865.231,734.746,874.432,743.7Z" transform="translate(-628.437 -520.307)"/><path class="a" d="M969.568,743.7c-9.2,8.957-10.325,22.727-10.325,22.727s13.795-.753,23-9.71,10.325-22.727,10.325-22.727S978.77,734.746,969.568,743.7Z" transform="translate(-702.923 -520.307)"/><ellipse class="a" cx="75.262" cy="11.646" rx="75.262" ry="11.646" transform="translate(51.597 213.664)"/><circle class="d" cx="5.144" cy="5.144" r="5.144" transform="translate(157.639 66.346)"/><path class="d" d="M636.3,255.3a5.144,5.144,0,0,1,4.592-5.113,5.144,5.144,0,1,0,0,10.227A5.144,5.144,0,0,1,636.3,255.3Z" transform="translate(-479.029 -186.016)"/><path class="e" d="M639.866,273.932s-.8,3.674,4.193,5.144" transform="translate(-482.227 -202.442)"/><circle class="d" cx="17.269" cy="17.269" r="17.269" transform="translate(147.641 71.892)"/><path class="f" d="M608.168,505.383l-.618,12.982,29.672,9.891s-1.545-16.381-.618-17.927Z" transform="translate(-459.932 -362.356)"/><path class="f" d="M317.383,649.747,314.6,660.565h12.981V649.747Z" transform="translate(-217.363 -448.922)"/><path class="f" d="M541.6,637.077l5.873,2.069,3.091-7.76-5.254-4.139Z" transform="translate(-374.201 -433.376)"/><path class="d" d="M684.594,657.961s8.757-1.15,8.757,6.268,1.236,25.654-11.127,23.49c0,0-5.563.618-3.4-5.873,0,0,2.2-2.64,1.41-4.257s-5.428-2.852-4.81-3.78,7.418-8.345,7.418-8.345Z" transform="translate(-506.788 -467.73)"/><path class="d" d="M524.107,534.825l-30.29-10.509-1.854,7.418s-45.435-26.272-48.217-8.345c0,0-2.473,14.527,1.236,33.69l.309,15.454s7.727,1.854,11.436.309l.309-16.69s3.091-10.818,1.545-19.163c0,0,23.181,18.236,33.69,20.4,0,0-36.781,28.436-32.454,37.4S469.4,605.3,476.2,603.75c4.686-1.065,25.665-17.982,38.255-28.4a35.7,35.7,0,0,0,13.032-29.363C527.261,541.889,526.314,537.915,524.107,534.825Z" transform="translate(-346.199 -370.471)"/><path class="d" d="M397.113,708.7s-.309-3.709-2.164-2.164-8.345,7.418-8.345,7.418-23.49,6.182-9.272,12.054a35.255,35.255,0,0,0,19.163-2.473s15.8.453,15.471-3.483-4.035-10.508-4.035-10.508-4.327,3.172-9.272-1.155Z" transform="translate(-297.712 -501.079)"/><circle class="f" cx="11.436" cy="11.436" r="11.436" transform="translate(149.164 84.61)"/><path class="f" d="M633.259,355.383s1.854,9.272,5.254,11.436l-18.854,22.254-7.109-6.8L617.8,373s5.873-3.4,4.018-8.036Z" transform="translate(-463.387 -258.718)"/><path class="f" d="M684.968,395.383s13.6,2.782,15.145,11.745-1.545,25.345-1.545,25.345l-6.491,48.217s-.309,20.4-8.345,17,2.164-18.854,2.164-18.854l2.782-30.29s1.236-25.654-1.236-28.745l-9.891-3.091S679.714,396.31,684.968,395.383Z" transform="translate(-508.296 -286.355)"/><path class="f" d="M445.963,412.379s-9.272-.309-15.145,7.109-20.09,12.981-20.09,12.981l-35.544,13.909s-6.491-11.436-10.509-7.418,7.418,14.218,12.672,12.981,37.09-10.818,37.09-10.818l25.345-11.436Z" transform="translate(-291.545 -298.096)"/><path class="g" d="M625.024,390s-11.884,15.882-17.139,15.572-1.716-9.7-1.716-9.7l-3.709.927s-5.084,9.7-5.7,10.318c0,0-7.418,12.054.927,14.836l.309,6.491s20.709-.927,29.672,3.709l1.854-16.072s-11.745-5.873-5.254-17.309c0,0,2.3-5.991,4.775-6.609Z" transform="translate(-450.377 -282.636)"/><path class="h" d="M599.34,664.883,552.05,699.5S599.649,671.374,599.34,664.883Z" transform="translate(-421.586 -472.557)"/><path class="d" d="M626.92,309.952c-6.088,0-11.023,2.879-11.023,6.43a5.229,5.229,0,0,0,2.629,4.163l2.122-1.538-.577,2.409c.24.111.484.218.739.318l3.17-3.7v4.544a18.5,18.5,0,0,0,2.939.233c6.088,0,11.023-2.879,11.023-6.43S633.008,309.952,626.92,309.952Z" transform="translate(-465.699 -227.329)"/><circle class="d" cx="5.144" cy="5.144" r="5.144" transform="translate(178.656 74.382)"/><path class="d" d="M704.3,281.3a5.144,5.144,0,0,1,4.592-5.113,5.144,5.144,0,1,0,0,10.227A5.144,5.144,0,0,1,704.3,281.3Z" transform="translate(-526.011 -203.979)"/><path class="e" d="M707.866,299.932s-.8,3.674,4.193,5.144" transform="translate(-529.21 -220.406)"/><ellipse class="f" cx="0.893" cy="2.009" rx="0.893" ry="2.009" transform="translate(171.606 93.11)"/><path class="g" d="M328.944,344.66l-13.553,3.284-.044.01-1.473,1.334-.424.383-.909-.165-1.609-.291,1.121-3.785.21-7.219-.771-4.416,4.275-2.944S324.108,330.362,328.944,344.66Z" transform="translate(-254.993 -241.768)"/><path class="h" d="M315.391,347.948c-.184.392.2.133-.009.536l-1.962.631-.879.4-1.609-.291,1.121-3.785.21-7.219-.771-4.416,4.275-2.944S320.356,337.356,315.391,347.948Z" transform="translate(-254.993 -241.773)"/><path class="g" d="M350.22,341.968s-17.8,8.27-25.021,9.532-6.588,8.481-6.588,8.481l40.441-6.308S357.649,347.155,350.22,341.968Z" transform="translate(-260.289 -249.45)"/><path class="e" d="M309.014,336.559a24.881,24.881,0,0,1-.35,16.821l4,1.822,1.542-1.822.035-.175-4.24-.385s3.5-9.392.631-15.91C310.626,336.91,309.995,335.508,309.014,336.559Z" transform="translate(-253.426 -245.442)"/><path class="e" d="M367.739,412.624c-15.77-3.5-30.453,3.75-30.453,3.75l-.04-.036-5.847-5.221L308.55,373.83l5.572.035c15.489-9.252,37.287-7.99,37.287-7.99C360.8,376.529,367.739,412.624,367.739,412.624Z" transform="translate(-253.348 -265.927)"/><path class="h" d="M337.246,434.25l-5.847-5.221L308.55,391.742l5.572.035S336.33,421.108,337.246,434.25Z" transform="translate(-253.348 -283.839)"/><ellipse class="g" cx="9.041" cy="5.747" rx="9.041" ry="5.747" transform="translate(74.451 112.979) rotate(-17.052)"/></g></svg>