<svg xmlns="http://www.w3.org/2000/svg" width="165.22" height="357.23" viewBox="0 0 165.22 357.23"><defs><style>.a{fill:#3f3d56;}.b{fill:#075e63;}.c{fill:#2f2e41;}.d{fill:#ffb8b8;}.e{fill:#47bdb7;}.f{fill:#ff5d58;}</style></defs><g transform="translate(-267.094 0.001)"><ellipse class="a" cx="61.041" cy="11.582" rx="61.041" ry="11.582" transform="translate(309.763 321.626)"/><ellipse class="a" cx="12.062" cy="1.866" rx="12.062" ry="1.866" transform="translate(404.978 315.117)"/><path class="b" d="M213.524,624.738c-1.54,5.692-6.814,9.217-6.814,9.217s-2.778-5.7-1.238-11.395,6.814-9.217,6.814-9.217S215.063,619.046,213.524,624.738Z" transform="translate(210.494 -317.714)"/><path class="b" d="M173.05,624.738c1.54,5.692,6.814,9.217,6.814,9.217s2.778-5.7,1.238-11.395-6.814-9.217-6.814-9.217S171.51,619.046,173.05,624.738Z" transform="translate(236.961 -317.714)"/><path class="a" d="M140.509,648.9c4.225,4.113,4.741,10.435,4.741,10.435s-6.334-.346-10.559-4.459-4.741-10.435-4.741-10.435S136.284,644.789,140.509,648.9Z" transform="translate(271.764 -343.102)"/><path class="a" d="M217.984,648.9c-4.225,4.113-4.741,10.435-4.741,10.435s6.334-.346,10.559-4.459,4.741-10.435,4.741-10.435S222.209,644.789,217.984,648.9Z" transform="translate(203.771 -343.102)"/><path class="c" d="M421.14,77.68l39.852.99,5.365-47.52H421.14Z" transform="translate(-84.532 -13.234)"/><path class="c" d="M561.66,374.531l14.547,100.858s12.608,35.882,13.577,53.338l3.879,25.215-17.456,3.879-18.427-70.794-25.215-64.006,2.909,73.7,5.819,60.127-17.457,2.909-10.668-76.613L501.531,426.9s-8.728-48.489,4.849-53.338Z" transform="translate(-182.867 -248.484)"/><path class="c" d="M508.034,676.415l1.941,23.6s-20.773,12.01-14.108,14.338,15.788-.667,17.654-1.2c1.971-.559,5.65-1.45,8.433-2.109a6.185,6.185,0,0,0,4.787-5.57q0-.043.005-.087c.168-2.9-6.385-28.145-6.385-28.145Z" transform="translate(-113.526 -377.147)"/><path class="c" d="M611.81,677.441l-1.635,22.57s-23.655,8.789-17.557,12.347,15.625,2.362,17.557,2.2c3.563-.3,12.432-.6,12.432-.6s1.639,1.42,2.359-1.4-.96-28-.96-28Z" transform="translate(-267.749 -377.583)"/><circle class="d" cx="18.426" cy="18.426" r="18.426" transform="translate(340.001 7.733)"/><path class="d" d="M453.013,64.029l3.88,21.335-16.487,7.758-3.879-27.154Z" transform="translate(-83.918 -27.202)"/><path class="e" d="M572.526,250.565l1.94-7.758,11.638-5.819,3.879,4.849,12.608,3.879L588.044,323.3s-49.462,2.909-50.431-4.849,9.7-29.094,9.7-29.094-2.91-10.668-1.94-16.486l3.88-23.275,15.517-4.849,3.544-4.287,3.245,5.257Z" transform="translate(-214.099 -190.463)"/><path class="c" d="M593.126,185.711c-13.788-5.526-27.38-6.7-40.618,0V174.573a7.255,7.255,0,0,1,7.255-7.255h27.632a5.731,5.731,0,0,1,5.731,5.731Z" transform="translate(-213.238 -160.865)"/><rect class="f" width="20.209" height="20.209" transform="matrix(0.966, 0.259, -0.259, 0.966, 319.735, 155.73)"/><path class="d" d="M605.586,390.467l-20.365,14.547s-8.728,22.3-15.517,18.426,7.758-23.275,7.758-23.275l16.486-16.486Z" transform="translate(-234.552 -252.782)"/><path class="d" d="M652.067,383.678l-1.94,11.637s4.849,24.245,10.668,19.4-1.94-20.366-1.94-20.366l.97-9.7Z" transform="translate(-339.221 -252.782)"/><path class="e" d="M553.8,254.1l2.909-1.94s5.819.97,7.758,8.728,0,42.671-4.849,49.459S541.195,337.5,541.195,337.5l-18.426-8.728,19.4-22.305,4.849-28.124Z" transform="translate(-168.219 -196.91)"/><path class="e" d="M651.708,260.846l-7.758-1.94s-4.849,1.94-6.789,8.728-12.607,40.731-11.638,43.64S616.8,333.58,616.8,333.58l13.577.97,7.758-20.365,7.758-20.366Z" transform="translate(-308.799 -199.775)"/><path class="c" d="M605.473,199.755c-3.886-2.134-5.694-6.923-5.823-11.355s.946-8.817,1.03-13.249a10.242,10.242,0,0,0-.23-2.7,10.393,10.393,0,0,0-1.486-3.076c-5.053-7.743-13.837-13.19-23.09-13.275a10.256,10.256,0,0,0-3.907.718c-.957.383-1.269.336-1.453,1.511a9.777,9.777,0,0,0-6.71.213,22.7,22.7,0,0,0-5.868,3.495,26.446,26.446,0,0,0-2.967,2.569c-4.89,5.065-6.016,12.872-4.6,19.769.46,2.242-1.749,4.407-3.577,5.784s-3.94,2.642-4.837,4.747c-.864,2.025-.389,4.342-.563,6.537a11.179,11.179,0,0,1-7.132,9.393A3.441,3.441,0,0,0,537.58,212a8.17,8.17,0,0,0,3.459-1.647,20.576,20.576,0,0,0,7.671-11.382,33.392,33.392,0,0,1,.309,7.462,20.846,20.846,0,0,1-1.511,8.151,11.935,11.935,0,0,1-5.495,6.051c2.4,1.174,5.041.323,7.074-1.409a14.782,14.782,0,0,0,4.071-6.782,33.8,33.8,0,0,0,1.629-12.83,18.318,18.318,0,0,1,2.3,12.489,19.093,19.093,0,0,1-6.476,11.241,37.2,37.2,0,0,0,17.026-4.288,9.635,9.635,0,0,0,3.492-2.689c1.69-2.344,1.29-5.542.816-8.393-.375-2.254,2.442-5.513.829-7.132a2.674,2.674,0,0,0-1.793-.771,15.869,15.869,0,0,1-12.086-7.123,18.348,18.348,0,0,1-3.055-9.408,17.119,17.119,0,1,1,33.47,5.08,34.348,34.348,0,0,0-1.246,5.8,45.6,45.6,0,0,1-1.39,6.749c-1.221,4.25-3.288,8.586-7.114,10.8a11.1,11.1,0,0,0,4.23.9c4.8.529,9.85.412,14.2-1.7S605.782,204.575,605.473,199.755Z" transform="translate(-215.109 -156.098)"/><ellipse class="d" cx="2.032" cy="3.251" rx="2.032" ry="3.251" transform="translate(373.566 25.241)"/><ellipse class="a" cx="20.58" cy="3.185" rx="20.58" ry="3.185" transform="translate(272.663 350.859)"/><path class="b" d="M219.538,632.785c-2.627,9.711-11.625,15.726-11.625,15.726s-4.739-9.731-2.112-19.442,11.625-15.726,11.625-15.726S222.165,623.074,219.538,632.785Z" transform="translate(85.611 -295.736)"/><path class="b" d="M173.378,632.785C176.005,642.5,185,648.511,185,648.511s4.739-9.731,2.112-19.442-11.625-15.726-11.625-15.726S170.751,623.074,173.378,632.785Z" transform="translate(107.871 -295.736)"/><path class="a" d="M147.966,652.05c7.209,7.017,8.089,17.8,8.089,17.8s-10.807-.59-18.016-7.607-8.089-17.8-8.089-17.8S140.757,645.033,147.966,652.05Z" transform="translate(137.144 -317.089)"/><path class="a" d="M221.332,652.05c-7.209,7.017-8.089,17.8-8.089,17.8s10.807-.59,18.016-7.607,8.089-17.8,8.089-17.8S228.541,645.033,221.332,652.05Z" transform="translate(79.956 -317.089)"/></g></svg>