<svg xmlns="http://www.w3.org/2000/svg" width="522.301" height="325.224" viewBox="0 0 522.301 325.224"><defs><style>.a{fill:#3f3d56;}.b{fill:#f8d15b;}.c{fill:#d0cde1;}.d{fill:#47bdb7;}.e{fill:#ff5d58;}.f{fill:#2f2e41;}.g{fill:#ffb8b8;}</style></defs><g transform="translate(0 0.001)"><rect class="a" width="102.911" height="96.272" transform="translate(42.05 180.198)"/><rect class="a" width="232.38" height="1.107" transform="translate(127.256 308.561)"/><path class="a" d="M315.01,584.505H128V421.286H315.01Zm-185.9-1.107H313.9V422.393h-184.8Z" transform="translate(-128 -274.562)"/><path class="a" d="M876.693,462.173a74.694,74.694,0,1,1,74.693-74.694A74.778,74.778,0,0,1,876.693,462.173Zm0-148.28a73.587,73.587,0,1,0,73.587,73.587A73.67,73.67,0,0,0,876.693,313.893Z" transform="translate(-429.086 -226.093)"/><circle class="a" cx="35.964" cy="35.964" r="35.964" transform="translate(409.431 125.423)"/><path class="b" d="M0,0H20.178V20.178H0Z" transform="translate(351.335 81.368) rotate(150)"/><rect class="a" width="20.178" height="20.178" transform="translate(94.058 90.774) rotate(150)"/><rect class="c" width="20.178" height="20.178" transform="translate(316.478 272.25) rotate(150)"/><rect class="d" width="18.812" height="18.812" transform="translate(84.099 218.928)"/><path class="e" d="M8.853,0A8.853,8.853,0,1,1,0,8.853,8.853,8.853,0,0,1,8.853,0Z" transform="translate(436.542 152.534)"/><path class="f" d="M464.637,75.91l-38.336.952L421.14,31.15h43.5Z" transform="translate(-188.129 -13.916)"/><path class="f" d="M529.555,374.494l-13.993,97.021s-12.128,34.517-13.061,51.309l-3.732,24.255,16.792,3.732,17.725-68.1,24.255-61.571-2.8,70.9-5.6,57.839,16.792,2.8,10.262-73.7,11.195-54.108s8.4-46.645-4.664-51.309Z" transform="translate(-293.628 -253.242)"/><path class="f" d="M512.553,676.415l-1.867,22.706s19.983,11.553,13.571,13.792-15.188-.642-16.983-1.151c-1.9-.538-5.435-1.395-8.112-2.029a5.95,5.95,0,0,1-4.605-5.358q0-.042-.005-.084c-.161-2.794,6.142-27.074,6.142-27.074Z" transform="translate(-291.743 -388.531)"/><path class="f" d="M604.439,677.441l1.573,21.711s22.755,8.454,16.89,11.878-15.03,2.272-16.89,2.116c-3.428-.289-11.959-.577-11.959-.577s-1.577,1.365-2.269-1.346.924-26.935.924-26.935Z" transform="translate(-335.102 -388.99)"/><circle class="g" cx="17.725" cy="17.725" r="17.725" transform="translate(237.793 7.439)"/><path class="g" d="M440.259,64.029l-3.732,20.524,15.859,7.463,3.731-26.121Z" transform="translate(-195.003 -28.603)"/><path class="c" d="M566.47,250.048l-1.866-7.463-11.195-5.6-3.732,4.664-12.128,3.732,13.993,74.632s47.578,2.8,48.51-4.664-9.329-27.987-9.329-27.987,2.8-10.262,1.866-15.859l-3.732-22.389-14.926-4.664-3.409-4.124-3.121,5.057Z" transform="translate(-310.952 -192.233)"/><path class="f" d="M552.508,185.011c13.263-5.316,26.338-6.45,39.073,0V174.3a6.979,6.979,0,0,0-6.979-6.979H558.021a5.513,5.513,0,0,0-5.513,5.513Z" transform="translate(-317.634 -161.11)"/><rect class="e" width="43.283" height="43.283" transform="translate(312.894 177.995) rotate(150)"/><path class="g" d="M567.9,390.208,587.49,404.2s8.4,21.456,14.926,17.725-7.463-22.389-7.463-22.389l-15.859-15.859Z" transform="translate(-324.509 -257.762)"/><path class="g" d="M660.605,383.678l1.866,11.195s-4.664,23.322-10.262,18.658,1.866-19.591,1.866-19.591l-.933-9.329Z" transform="translate(-361.242 -257.762)"/><path class="c" d="M533.746,254.029l-2.8-1.866s-5.6.933-7.463,8.4,0,41.047,4.664,47.578,17.725,26.121,17.725,26.121l17.725-8.4L544.94,304.4l-4.664-27.054Z" transform="translate(-304.349 -199.012)"/><path class="c" d="M616.8,260.773l7.463-1.866s4.664,1.866,6.53,8.4,12.128,39.182,11.195,41.98,8.4,21.457,8.4,21.457l-13.06.933-7.463-19.591-7.463-19.591Z" transform="translate(-346.352 -202.024)"/><path class="f" d="M534.279,198.094c3.738-2.053,5.478-6.66,5.6-10.923s-.91-8.482-.991-12.745a9.851,9.851,0,0,1,.221-2.6,10,10,0,0,1,1.43-2.959c4.861-7.448,13.311-12.688,22.211-12.77a9.865,9.865,0,0,1,3.758.691c.92.369,1.221.323,1.4,1.453a9.4,9.4,0,0,1,6.455.205,21.839,21.839,0,0,1,5.645,3.362,25.443,25.443,0,0,1,2.854,2.471c4.7,4.873,5.787,12.383,4.424,19.017-.443,2.157,1.683,4.239,3.441,5.564s3.79,2.541,4.653,4.567c.831,1.948.375,4.177.542,6.288a10.754,10.754,0,0,0,6.861,9.036,3.31,3.31,0,0,1-3.193,1.123,7.859,7.859,0,0,1-3.328-1.584,19.793,19.793,0,0,1-7.379-10.949,32.112,32.112,0,0,0-.3,7.178,20.053,20.053,0,0,0,1.454,7.841,11.481,11.481,0,0,0,5.286,5.82c-2.307,1.13-4.85.311-6.8-1.356A14.22,14.22,0,0,1,584.6,210.3a32.518,32.518,0,0,1-1.567-12.341,17.622,17.622,0,0,0-2.211,12.014,18.368,18.368,0,0,0,6.23,10.814,35.784,35.784,0,0,1-16.378-4.125,9.271,9.271,0,0,1-3.359-2.587c-1.626-2.255-1.241-5.331-.785-8.074.361-2.168-2.349-5.3-.8-6.861a2.572,2.572,0,0,1,1.725-.741,15.265,15.265,0,0,0,11.627-6.852,17.649,17.649,0,0,0,2.939-9.05,16.468,16.468,0,1,0-32.2,4.887,33.049,33.049,0,0,1,1.2,5.581,43.852,43.852,0,0,0,1.337,6.492c1.174,4.088,3.163,8.26,6.844,10.392a10.68,10.68,0,0,1-4.069.862c-4.618.509-9.475.4-13.655-1.632S533.981,202.73,534.279,198.094Z" transform="translate(-309.483 -156.098)"/><ellipse class="g" cx="1.955" cy="3.128" rx="1.955" ry="3.128" transform="translate(237.046 24.281)"/></g></svg>