<svg xmlns="http://www.w3.org/2000/svg" width="246" height="153.178" viewBox="0 0 246 153.178"><defs><style>.a{fill:#3f3d56;}.b{fill:#f8d15b;}.c{fill:#d0cde1;}.d{fill:#47bdb7;}.e{fill:#ff5d58;}.f{fill:#2f2e41;}.g{fill:#ffb8b8;}</style></defs><g transform="translate(0 0.001)"><rect class="a" width="48.47" height="45.343" transform="translate(19.805 84.872)"/><rect class="a" width="109.449" height="0.521" transform="translate(59.936 145.329)"/><path class="a" d="M216.081,498.161H128V421.286h88.081Zm-87.559-.521h87.038V421.807H128.521Z" transform="translate(-128 -352.181)"/><path class="a" d="M837.18,383.146a35.18,35.18,0,1,1,35.18-35.18A35.22,35.22,0,0,1,837.18,383.146Zm0-69.839a34.659,34.659,0,1,0,34.659,34.659A34.7,34.7,0,0,0,837.18,313.307Z" transform="translate(-626.36 -271.955)"/><circle class="a" cx="16.939" cy="16.939" r="16.939" transform="translate(192.839 59.073)"/><path class="b" d="M0,0H9.5V9.5H0Z" transform="translate(165.476 38.323) rotate(150)"/><rect class="a" width="9.503" height="9.503" transform="translate(44.301 42.753) rotate(150)"/><rect class="c" width="9.503" height="9.503" transform="translate(149.059 128.227) rotate(150)"/><rect class="d" width="8.86" height="8.86" transform="translate(39.61 103.113)"/><path class="e" d="M4.169,0A4.169,4.169,0,1,1,0,4.169,4.169,4.169,0,0,1,4.169,0Z" transform="translate(205.608 71.842)"/><path class="f" d="M441.627,52.231l-18.056.448L421.14,31.15h20.487Z" transform="translate(-311.394 -23.033)"/><path class="f" d="M513.269,374l-6.591,45.7s-5.712,16.257-6.151,24.166l-1.758,11.424,7.909,1.758,8.348-32.075,11.424-29-1.318,33.393L522.5,456.605l7.909,1.318,4.833-34.712,5.273-25.484s3.954-21.969-2.2-24.166Z" transform="translate(-402.15 -316.893)"/><path class="f" d="M503.029,676.415l-.88,10.694s9.412,5.441,6.392,6.5-7.153-.3-8-.542c-.893-.253-2.56-.657-3.821-.956a2.8,2.8,0,0,1-2.169-2.524l0-.039c-.076-1.316,2.893-12.752,2.893-12.752Z" transform="translate(-399.029 -540.825)"/><path class="f" d="M597.654,677.441l.741,10.226s10.718,3.982,7.955,5.594-7.079,1.07-7.955,1c-1.614-.136-5.632-.272-5.632-.272s-.743.643-1.069-.634.435-12.686.435-12.686Z" transform="translate(-470.798 -541.583)"/><circle class="g" cx="8.348" cy="8.348" r="8.348" transform="translate(111.999 3.503)"/><path class="g" d="M438.285,64.029,436.527,73.7,444,77.211l1.757-12.3Z" transform="translate(-322.771 -47.344)"/><path class="c" d="M551.171,243.139l-.879-3.515-5.273-2.636-1.758,2.2-5.712,1.758,6.591,35.151s22.409,1.318,22.848-2.2-4.394-13.182-4.394-13.182,1.318-4.833.879-7.47L561.716,242.7l-7.03-2.2-1.606-1.942-1.47,2.382Z" transform="translate(-430.824 -215.909)"/><path class="f" d="M552.508,175.651c6.247-2.5,12.405-3.038,18.4,0V170.6a3.287,3.287,0,0,0-3.287-3.287H555.1a2.6,2.6,0,0,0-2.6,2.6Z" transform="translate(-441.884 -164.395)"/><rect class="e" width="20.386" height="20.386" transform="translate(147.371 83.834) rotate(150)"/><path class="g" d="M567.9,386.754l9.227,6.591s3.955,10.106,7.03,8.348-3.515-10.545-3.515-10.545l-7.469-7.469Z" transform="translate(-453.264 -324.373)"/><path class="g" d="M655.063,383.678l.879,5.273s-2.2,10.985-4.833,8.788.879-9.227.879-9.227l-.439-4.394Z" transform="translate(-514.065 -324.373)"/><path class="c" d="M527.939,253.042l-1.318-.879s-2.636.439-3.515,3.954,0,19.333,2.2,22.409,8.348,12.3,8.348,12.3L542,286.874l-8.788-10.106-2.2-12.742Z" transform="translate(-419.895 -227.13)"/><path class="c" d="M616.8,259.786l3.515-.879a5.95,5.95,0,0,1,3.076,3.954c.879,3.076,5.712,18.454,5.273,19.772s3.954,10.106,3.954,10.106l-6.151.439-3.515-9.227-3.515-9.227Z" transform="translate(-489.419 -232.116)"/><path class="f" d="M534.269,175.877c1.761-.967,2.58-3.137,2.638-5.145s-.428-3.995-.467-6a4.645,4.645,0,0,1,.1-1.224,4.709,4.709,0,0,1,.673-1.394A13.011,13.011,0,0,1,547.68,156.1a4.647,4.647,0,0,1,1.77.325c.433.174.575.152.658.684a4.43,4.43,0,0,1,3.04.1,10.285,10.285,0,0,1,2.659,1.583,11.979,11.979,0,0,1,1.344,1.164c2.215,2.295,2.725,5.832,2.084,8.957-.209,1.016.792,2,1.621,2.62a6.019,6.019,0,0,1,2.192,2.151,9.32,9.32,0,0,1,.255,2.962,5.065,5.065,0,0,0,3.231,4.256,1.559,1.559,0,0,1-1.5.529,3.7,3.7,0,0,1-1.567-.746,9.322,9.322,0,0,1-3.475-5.157,15.119,15.119,0,0,0-.14,3.381,9.444,9.444,0,0,0,.685,3.693,5.407,5.407,0,0,0,2.49,2.741,2.936,2.936,0,0,1-3.2-.638,6.7,6.7,0,0,1-1.844-3.073,15.317,15.317,0,0,1-.738-5.813,8.3,8.3,0,0,0-1.042,5.658,8.651,8.651,0,0,0,2.934,5.093,16.855,16.855,0,0,1-7.714-1.943,4.367,4.367,0,0,1-1.582-1.219c-.766-1.062-.585-2.511-.37-3.8.17-1.021-1.106-2.5-.376-3.231a1.212,1.212,0,0,1,.812-.349,7.19,7.19,0,0,0,5.476-3.227,8.313,8.313,0,0,0,1.384-4.262,7.756,7.756,0,1,0-15.164,2.3,15.572,15.572,0,0,1,.565,2.629,20.645,20.645,0,0,0,.63,3.058c.553,1.926,1.49,3.89,3.223,4.895a5.031,5.031,0,0,1-1.917.406,11.775,11.775,0,0,1-6.432-.769A5.691,5.691,0,0,1,534.269,175.877Z" transform="translate(-428.392 -156.098)"/><ellipse class="g" cx="0.921" cy="1.473" rx="0.921" ry="1.473" transform="translate(111.647 11.435)"/></g></svg>