<svg xmlns="http://www.w3.org/2000/svg" width="25" height="16.876" viewBox="0 0 25 16.876"><defs><style>.a{fill:#47bdb7;}</style></defs><path class="a" d="M.072,19.449V5.563q0-.024.072-.458L8.317,12.1.168,19.931a2.043,2.043,0,0,1-.1-.482ZM1.157,4.14a1.039,1.039,0,0,1,.41-.072H23.577a1.365,1.365,0,0,1,.434.072l-8.2,7.015-1.085.868-2.146,1.76-2.146-1.76-1.085-.868Zm.024,16.731L9.4,12.988l3.182,2.58,3.182-2.58,8.221,7.883a1.158,1.158,0,0,1-.41.072H1.567a1.092,1.092,0,0,1-.386-.072ZM16.851,12.1,25,5.1a1.439,1.439,0,0,1,.072.458V19.449a1.848,1.848,0,0,1-.072.482Z" transform="translate(-0.072 -4.068)"/></svg>