<svg xmlns="http://www.w3.org/2000/svg" width="29.521" height="29.499" viewBox="0 0 29.521 29.499"><defs><style>.a{fill:none;stroke:#07f;stroke-width:1.5px;}</style></defs><g transform="translate(-2.613 -2.602)"><path class="a" d="M31.218,3.752A.3.3,0,0,0,31,3.523c-3.66-.895-12.119,2.295-16.7,6.877a19.807,19.807,0,0,0-2.227,2.631,8.288,8.288,0,0,0-4.031.5c-3.4,1.494-4.387,5.4-4.663,7.072a.6.6,0,0,0,.659.7l5.457-.6a12.131,12.131,0,0,0,.074,1.231,1.221,1.221,0,0,0,.357.747L12.035,24.8a1.221,1.221,0,0,0,.747.357,12.109,12.109,0,0,0,1.225.074l-.6,5.45a.6.6,0,0,0,.7.659c1.675-.269,5.585-1.258,7.072-4.656a8.325,8.325,0,0,0,.511-4.017,19.838,19.838,0,0,0,2.638-2.227C28.931,15.864,32.1,7.594,31.218,3.752ZM20.237,14.511a2.874,2.874,0,1,1,4.064,0A2.871,2.871,0,0,1,20.237,14.511Z" transform="translate(0 0)"/><path class="a" d="M12.27,26.754h0a2.667,2.667,0,0,1-1.392.563,1.893,1.893,0,0,1-2.18-2.18,2.615,2.615,0,0,1,.555-1.385l.007-.007a.235.235,0,0,0-.2-.4,3.232,3.232,0,0,0-1.891.921c-1.266,1.266-1.385,5.962-1.385,5.962s4.7-.12,5.97-1.385a3.211,3.211,0,0,0,.921-1.891A.241.241,0,0,0,12.27,26.754Z" transform="translate(0 -1.257)"/></g></svg>