<svg xmlns="http://www.w3.org/2000/svg" width="29.5" height="32.045" viewBox="0 0 29.5 32.045"><defs><style>.a{fill:none;stroke:#07f;stroke-width:1.5px;}</style></defs><g transform="translate(-4.875 -3.75)"><path class="a" d="M12.938,35.045h3.375a.6.6,0,0,0,.563-.636V5.136a.6.6,0,0,0-.562-.636H12.938a.6.6,0,0,0-.562.636V34.409A.6.6,0,0,0,12.938,35.045Z" transform="translate(1.083)"/><path class="a" d="M6.188,31.5H9.563a.564.564,0,0,0,.563-.562V20.813a.564.564,0,0,0-.562-.562H6.188a.564.564,0,0,0-.562.563V30.938A.564.564,0,0,0,6.188,31.5Z" transform="translate(0 3.545)"/><path class="a" d="M19.695,31.5h3.361a.567.567,0,0,0,.57-.57V16.32a.567.567,0,0,0-.57-.57H19.695a.567.567,0,0,0-.57.57V30.93A.567.567,0,0,0,19.695,31.5Z" transform="translate(2.167 3.545)"/><path class="a" d="M25.875,9.57V30.93a.567.567,0,0,0,.57.57h3.361a.567.567,0,0,0,.57-.57V9.57a.567.567,0,0,0-.57-.57H26.445A.567.567,0,0,0,25.875,9.57Z" transform="translate(3.25 3.545)"/></g></svg>