<svg xmlns="http://www.w3.org/2000/svg" width="28.006" height="28" viewBox="0 0 28.006 28"><defs><style>.a{fill:#7a7a7a;}</style></defs><path class="a" d="M14,9.059a7.179,7.179,0,1,0,7.179,7.179A7.167,7.167,0,0,0,14,9.059ZM14,20.9a4.667,4.667,0,1,1,4.667-4.667A4.676,4.676,0,0,1,14,20.9Zm9.147-12.14a1.674,1.674,0,1,1-1.674-1.674A1.671,1.671,0,0,1,23.148,8.765Zm4.755,1.7A8.286,8.286,0,0,0,25.641,4.6a8.341,8.341,0,0,0-5.867-2.262c-2.312-.131-9.241-.131-11.552,0A8.329,8.329,0,0,0,2.355,4.592,8.314,8.314,0,0,0,.093,10.458c-.131,2.312-.131,9.241,0,11.552a8.286,8.286,0,0,0,2.262,5.867,8.351,8.351,0,0,0,5.867,2.262c2.312.131,9.241.131,11.552,0a8.286,8.286,0,0,0,5.867-2.262A8.341,8.341,0,0,0,27.9,22.011c.131-2.312.131-9.234,0-11.546ZM24.916,24.491a4.725,4.725,0,0,1-2.662,2.662c-1.843.731-6.217.562-8.253.562s-6.417.162-8.253-.562a4.725,4.725,0,0,1-2.662-2.662c-.731-1.843-.562-6.217-.562-8.253s-.162-6.417.562-8.253A4.725,4.725,0,0,1,5.747,5.323C7.591,4.592,11.964,4.76,14,4.76s6.417-.162,8.253.562a4.725,4.725,0,0,1,2.662,2.662c.731,1.843.562,6.217.562,8.253S25.647,22.654,24.916,24.491Z" transform="translate(0.005 -2.238)"/></svg>