<svg xmlns="http://www.w3.org/2000/svg" width="28" height="28" viewBox="0 0 28 28"><defs><style>.a{fill:#7a7a7a;}</style></defs><path class="a" d="M28,14.563A14,14,0,0,1,9.856,27.936,15.737,15.737,0,0,0,11.6,24.267c.169-.655.869-3.331.869-3.331a3.749,3.749,0,0,0,3.206,1.609c4.223,0,7.265-3.884,7.265-8.71,0-4.623-3.777-8.084-8.631-8.084-6.04,0-9.252,4.053-9.252,8.473,0,2.055,1.1,4.612,2.84,5.425.265.124.406.068.469-.186.045-.192.282-1.146.39-1.586a.419.419,0,0,0-.1-.4,5.513,5.513,0,0,1-1.033-3.2,6.058,6.058,0,0,1,6.323-6.074,5.527,5.527,0,0,1,5.848,5.7c0,3.788-1.914,6.413-4.4,6.413a2.031,2.031,0,0,1-2.072-2.529c.4-1.665,1.157-3.46,1.157-4.663a1.758,1.758,0,0,0-1.773-1.97c-1.406,0-2.535,1.451-2.535,3.4a5.044,5.044,0,0,0,.418,2.077S9.2,22.488,8.948,23.583A13.552,13.552,0,0,0,8.9,27.6,14,14,0,1,1,28,14.563Z" transform="translate(0 -0.563)"/></svg>