<svg xmlns="http://www.w3.org/2000/svg" width="34.475" height="28" viewBox="0 0 34.475 28"><defs><style>.a{fill:#7a7a7a;}</style></defs><path class="a" d="M30.931,10.359c.022.306.022.613.022.919,0,9.341-7.109,20.1-20.1,20.1A19.967,19.967,0,0,1,0,28.209a14.617,14.617,0,0,0,1.706.087,14.15,14.15,0,0,0,8.772-3.019,7.078,7.078,0,0,1-6.606-4.9,8.91,8.91,0,0,0,1.334.109,7.473,7.473,0,0,0,1.859-.241A7.067,7.067,0,0,1,1.4,13.312v-.087a7.116,7.116,0,0,0,3.194.9,7.076,7.076,0,0,1-2.187-9.45,20.084,20.084,0,0,0,14.569,7.394,7.976,7.976,0,0,1-.175-1.619A7.072,7.072,0,0,1,29.028,5.612a13.911,13.911,0,0,0,4.484-1.706A7.047,7.047,0,0,1,30.406,7.8a14.164,14.164,0,0,0,4.069-1.094,15.188,15.188,0,0,1-3.544,3.653Z" transform="translate(0 -3.381)"/></svg>