<svg xmlns="http://www.w3.org/2000/svg" width="39.822" height="28" viewBox="0 0 39.822 28"><defs><style>.a{fill:#7a7a7a;}</style></defs><path class="a" d="M40.04,8.881a5,5,0,0,0-3.521-3.544C33.414,4.5,20.961,4.5,20.961,4.5S8.508,4.5,5.4,5.338A5,5,0,0,0,1.882,8.881c-.832,3.126-.832,9.647-.832,9.647s0,6.522.832,9.647A4.929,4.929,0,0,0,5.4,31.662c3.106.838,15.558.838,15.558.838s12.453,0,15.558-.838a4.929,4.929,0,0,0,3.521-3.487c.832-3.126.832-9.647.832-9.647s0-6.522-.832-9.647ZM16.888,24.449V12.607L27.3,18.528,16.888,24.449Z" transform="translate(-1.05 -4.5)"/></svg>