<svg xmlns="http://www.w3.org/2000/svg" width="20" height="20" viewBox="0 0 20 20"><defs><style>.a{fill:#fff;}</style></defs><path class="a" d="M10,0C7.283,0,6.944.013,5.878.06A7.374,7.374,0,0,0,3.45.525,4.9,4.9,0,0,0,1.678,1.678,4.879,4.879,0,0,0,.525,3.45,7.352,7.352,0,0,0,.06,5.878C.01,6.944,0,7.283,0,10s.013,3.056.06,4.122A7.378,7.378,0,0,0,.525,16.55a4.9,4.9,0,0,0,1.153,1.772A4.89,4.89,0,0,0,3.45,19.475a7.383,7.383,0,0,0,2.427.465C6.944,19.99,7.283,20,10,20s3.056-.013,4.122-.06a7.4,7.4,0,0,0,2.427-.465,5.111,5.111,0,0,0,2.925-2.925,7.378,7.378,0,0,0,.465-2.427c.05-1.067.06-1.406.06-4.122s-.013-3.056-.06-4.122a7.4,7.4,0,0,0-.465-2.428,4.908,4.908,0,0,0-1.153-1.772A4.872,4.872,0,0,0,16.55.525,7.357,7.357,0,0,0,14.122.06C13.056.01,12.717,0,10,0Zm0,1.8c2.669,0,2.988.013,4.042.059A5.51,5.51,0,0,1,15.9,2.2a3.291,3.291,0,0,1,1.9,1.9,5.521,5.521,0,0,1,.344,1.856C18.187,7.013,18.2,7.33,18.2,10s-.013,2.988-.062,4.042a5.628,5.628,0,0,1-.351,1.856,3.175,3.175,0,0,1-.749,1.152,3.12,3.12,0,0,1-1.15.747,5.562,5.562,0,0,1-1.863.344c-1.062.048-1.374.058-4.049.058s-2.988-.013-4.049-.062a5.67,5.67,0,0,1-1.863-.351,3.1,3.1,0,0,1-1.149-.749,3.036,3.036,0,0,1-.75-1.15,5.675,5.675,0,0,1-.35-1.863c-.038-1.05-.051-1.374-.051-4.037S1.776,7,1.813,5.937a5.669,5.669,0,0,1,.35-1.862,2.964,2.964,0,0,1,.75-1.151,2.958,2.958,0,0,1,1.149-.748,5.535,5.535,0,0,1,1.851-.351c1.063-.038,1.375-.05,4.049-.05L10,1.8Zm0,3.065A5.135,5.135,0,1,0,15.135,10,5.135,5.135,0,0,0,10,4.865Zm0,8.468A3.333,3.333,0,1,1,13.333,10,3.332,3.332,0,0,1,10,13.333Zm6.538-8.671a1.2,1.2,0,1,1-1.2-1.2A1.2,1.2,0,0,1,16.538,4.662Z"/></svg>