<svg xmlns="http://www.w3.org/2000/svg" width="18.775" height="15.248" viewBox="0 0 18.775 15.248"><defs><style>.a{fill:#fff;}</style></defs><path class="a" d="M16.845,5.678c.012.167.012.334.012.5A10.873,10.873,0,0,1,5.909,17.127,10.874,10.874,0,0,1,0,15.4a7.96,7.96,0,0,0,.929.048A7.706,7.706,0,0,0,5.706,13.8a3.855,3.855,0,0,1-3.6-2.668,4.852,4.852,0,0,0,.727.06,4.07,4.07,0,0,0,1.013-.131A3.848,3.848,0,0,1,.762,7.287V7.239A3.875,3.875,0,0,0,2.5,7.727,3.854,3.854,0,0,1,1.31,2.581,10.937,10.937,0,0,0,9.244,6.608a4.344,4.344,0,0,1-.1-.882,3.852,3.852,0,0,1,6.659-2.633,7.576,7.576,0,0,0,2.442-.929,3.837,3.837,0,0,1-1.692,2.12,7.714,7.714,0,0,0,2.216-.6,8.271,8.271,0,0,1-1.93,1.989Z" transform="translate(0 -1.878)"/></svg>